Asphalt-Condensed_Black.ufo
<glyph name="exclam" format="1">
  <advance width="270"/>
  <unicode hex="0021"/>
  <outline>
    <contour>
      <point x="260" y="725" type="line"/>
      <point x="230" y="226" type="line"/>
      <point x="20" y="239" type="line"/>
      <point x="8" y="711" type="line"/>
    </contour>
    <contour>
      <point x="255" y="-13" type="line"/>
      <point x="15" y="4" type="line"/>
      <point x="26" y="185" type="line"/>
      <point x="247" y="201" type="line"/>
    </contour>
  </outline>
</glyph>
<glyph name="quotedbl" format="1">
  <advance width="443"/>
  <unicode hex="0022"/>
  <outline>
    <contour>
      <point x="211" y="737" type="line"/>
      <point x="187" y="350" type="line"/>
      <point x="29" y="380" type="line"/>
      <point x="2" y="708" type="line"/>
    </contour>
    <contour>
      <point x="439" y="693" type="line"/>
      <point x="400" y="400" type="line"/>
      <point x="233" y="371" type="line"/>
      <point x="218" y="712" type="line"/>
    </contour>
  </outline>
</glyph>
<glyph name="numbersign" format="1">
  <advance width="529"/>
  <unicode hex="0023"/>
  <outline>
    <contour>
      <point x="526" y="560" type="line"/>
      <point x="489" y="365" type="line"/>
      <point x="436" y="373" type="line"/>
      <point x="426" y="295" type="line"/>
      <point x="491" y="283" type="line"/>
      <point x="470" y="106" type="line"/>
      <point x="402" y="116" type="line"/>
      <point x="388" y="15" type="line"/>
      <point x="224" y="-1" type="line"/>
      <point x="238" y="141" type="line"/>
      <point x="212" y="145" type="line"/>
      <point x="200" y="-15" type="line"/>
      <point x="48" y="39" type="line"/>
      <point x="57" y="169" type="line"/>
      <point x="18" y="175" type="line"/>
      <point x="11" y="378" type="line"/>
      <point x="71" y="367" type="line"/>
      <point x="75" y="428" type="line"/>
      <point x="2" y="439" type="line"/>
      <point x="29" y="599" type="line"/>
      <point x="86" y="595" type="line"/>
      <point x="94" y="716" type="line"/>
      <point x="254" y="733" type="line"/>
      <point x="244" y="582" type="line"/>
      <point x="282" y="580" type="line"/>
      <point x="298" y="736" type="line"/>
      <point x="482" y="722" type="line"/>
      <point x="461" y="565" type="line"/>
    </contour>
    <contour>
      <point x="272" y="414" type="line"/>
      <point x="230" y="421" type="line"/>
      <point x="221" y="317" type="line"/>
      <point x="262" y="310" type="line"/>
    </contour>
  </outline>
</glyph>
<glyph name="dollar" format="1">
  <advance width="473"/>
  <unicode hex="0024"/>
  <outline>
    <contour>
      <point x="471" y="683" type="curve"/>
      <point x="443" y="449" type="line"/>
      <point x="385" y="476"/>
      <point x="312" y="494"/>
      <point x="259" y="494" type="curve" smooth="yes"/>
      <point x="228" y="494"/>
      <point x="222" y="491"/>
      <point x="222" y="479" type="curve" smooth="yes"/>
      <point x="222" y="467"/>
      <point x="226" y="464"/>
      <point x="281" y="449" type="curve" smooth="yes"/>
      <point x="430" y="408"/>
      <point x="461" y="365"/>
      <point x="461" y="219" type="curve" smooth="yes"/>
      <point x="461" y="68"/>
      <point x="431" y="11"/>
      <point x="308" y="-4" type="curve"/>
      <point x="299" y="-95" type="line"/>
      <point x="137" y="-79" type="line"/>
      <point x="141" y="-1" type="line"/>
      <point x="87" y="7"/>
      <point x="34" y="22"/>
      <point x="-1" y="42" type="curve"/>
      <point x="10" y="255" type="line"/>
      <point x="71" y="220"/>
      <point x="161" y="190"/>
      <point x="223" y="190" type="curve" smooth="yes"/>
      <point x="236" y="190"/>
      <point x="240" y="195"/>
      <point x="240" y="206" type="curve" smooth="yes"/>
      <point x="240" y="220"/>
      <point x="233" y="223"/>
      <point x="205" y="230" type="curve" smooth="yes"/>
      <point x="50" y="269"/>
      <point x="4" y="322"/>
      <point x="4" y="493" type="curve" smooth="yes"/>
      <point x="4" y="657"/>
      <point x="40" y="709"/>
      <point x="166" y="721" type="curve"/>
      <point x="174" y="834" type="line"/>
      <point x="330" y="802" type="line"/>
      <point x="331" y="720" type="line"/>
      <point x="388" y="714"/>
      <point x="430" y="701"/>
    </contour>
  </outline>
</glyph>
<glyph name="percent" format="1">
  <advance width="551"/>
  <unicode hex="0025"/>
  <outline>
    <contour>
      <point x="547" y="212" type="curve" smooth="yes"/>
      <point x="547" y="22"/>
      <point x="515" y="-11"/>
      <point x="355" y="-11" type="curve" smooth="yes"/>
      <point x="250" y="-11"/>
      <point x="223" y="40"/>
      <point x="217" y="144" type="curve"/>
      <point x="94" y="-12" type="line"/>
      <point x="8" y="80" type="line"/>
      <point x="129" y="257" type="line"/>
      <point x="34" y="263"/>
      <point x="4" y="311"/>
      <point x="4" y="475" type="curve" smooth="yes"/>
      <point x="4" y="695"/>
      <point x="33" y="725"/>
      <point x="197" y="725" type="curve" smooth="yes"/>
      <point x="292" y="725"/>
      <point x="324" y="679"/>
      <point x="334" y="538" type="curve"/>
      <point x="443" y="719" type="line"/>
      <point x="543" y="631" type="line"/>
      <point x="436" y="448" type="line"/>
      <point x="505" y="430"/>
      <point x="547" y="382"/>
    </contour>
    <contour>
      <point x="188" y="521" type="curve" smooth="yes"/>
      <point x="188" y="584"/>
      <point x="186" y="597"/>
      <point x="177" y="597" type="curve" smooth="yes"/>
      <point x="166" y="597"/>
      <point x="164" y="584"/>
      <point x="164" y="484" type="curve" smooth="yes"/>
      <point x="164" y="402"/>
      <point x="166" y="380"/>
      <point x="175" y="380" type="curve" smooth="yes"/>
      <point x="185" y="380"/>
      <point x="188" y="392"/>
    </contour>
    <contour>
      <point x="388" y="255" type="curve" smooth="yes"/>
      <point x="388" y="318"/>
      <point x="386" y="331"/>
      <point x="376" y="331" type="curve" smooth="yes"/>
      <point x="365" y="331"/>
      <point x="364" y="318"/>
      <point x="364" y="218" type="curve" smooth="yes"/>
      <point x="364" y="137"/>
      <point x="365" y="114"/>
      <point x="375" y="114" type="curve" smooth="yes"/>
      <point x="384" y="114"/>
      <point x="388" y="126"/>
    </contour>
  </outline>
</glyph>
<glyph name="ampersand" format="1">
  <advance width="504"/>
  <unicode hex="0026"/>
  <outline>
    <contour>
      <point x="511" y="52" type="line"/>
      <point x="346" y="-16" type="line"/>
      <point x="309" y="60" type="line"/>
      <point x="269" y="23"/>
      <point x="211" y="-5"/>
      <point x="154" y="-5" type="curve" smooth="yes"/>
      <point x="37" y="-5"/>
      <point x="2" y="54"/>
      <point x="2" y="187" type="curve" smooth="yes"/>
      <point x="2" y="267"/>
      <point x="41" y="345"/>
      <point x="88" y="391" type="curve"/>
      <point x="59" y="440"/>
      <point x="45" y="485"/>
      <point x="45" y="562" type="curve" smooth="yes"/>
      <point x="45" y="679"/>
      <point x="98" y="724"/>
      <point x="256" y="724" type="curve" smooth="yes"/>
      <point x="362" y="724"/>
      <point x="411" y="715"/>
      <point x="471" y="697" type="curve"/>
      <point x="457" y="500" type="line"/>
      <point x="416" y="514"/>
      <point x="359" y="525"/>
      <point x="328" y="525" type="curve" smooth="yes"/>
      <point x="284" y="525"/>
      <point x="280" y="512"/>
      <point x="280" y="491" type="curve" smooth="yes"/>
      <point x="280" y="465"/>
      <point x="287" y="441"/>
      <point x="342" y="359" type="curve"/>
      <point x="407" y="440" type="line"/>
      <point x="502" y="252" type="line"/>
      <point x="437" y="187" type="line"/>
    </contour>
    <contour>
      <point x="227" y="199" type="curve"/>
      <point x="189" y="266" type="line"/>
      <point x="174" y="247"/>
      <point x="167" y="229"/>
      <point x="167" y="201" type="curve" smooth="yes"/>
      <point x="167" y="176"/>
      <point x="176" y="164"/>
      <point x="189" y="164" type="curve" smooth="yes"/>
      <point x="202" y="164"/>
      <point x="216" y="176"/>
    </contour>
  </outline>
</glyph>
<glyph name="quotesingle" format="1">
  <advance width="221"/>
  <unicode hex="0027"/>
  <outline>
    <contour>
      <point x="212" y="729" type="line"/>
      <point x="196" y="389" type="line"/>
      <point x="24" y="365" type="line"/>
      <point x="3" y="715" type="line"/>
    </contour>
  </outline>
</glyph>
<glyph name="parenleft" format="1">
  <advance width="281"/>
  <unicode hex="0028"/>
  <outline>
    <contour>
      <point x="278" y="701" type="line"/>
      <point x="240" y="549"/>
      <point x="227" y="441"/>
      <point x="227" y="316" type="curve" smooth="yes"/>
      <point x="227" y="184"/>
      <point x="238" y="94"/>
      <point x="254" y="3" type="curve"/>
      <point x="48" y="-34" type="line"/>
      <point x="23" y="50"/>
      <point x="5" y="155"/>
      <point x="5" y="273" type="curve" smooth="yes"/>
      <point x="5" y="463"/>
      <point x="20" y="578"/>
      <point x="80" y="734" type="curve"/>
    </contour>
  </outline>
</glyph>
<glyph name="parenright" format="1">
  <advance width="281"/>
  <unicode hex="0029"/>
  <outline>
    <contour>
      <point x="278" y="400" type="curve" smooth="yes"/>
      <point x="278" y="222"/>
      <point x="253" y="99"/>
      <point x="209" y="-17" type="curve"/>
      <point x="-4" y="10" type="line"/>
      <point x="31" y="109"/>
      <point x="56" y="205"/>
      <point x="56" y="359" type="curve" smooth="yes"/>
      <point x="56" y="503"/>
      <point x="39" y="572"/>
      <point x="7" y="691" type="curve"/>
      <point x="221" y="729" type="line"/>
      <point x="262" y="624"/>
      <point x="278" y="514"/>
    </contour>
  </outline>
</glyph>
<glyph name="asterisk" format="1">
  <advance width="383"/>
  <unicode hex="002A"/>
  <outline>
    <contour>
      <point x="379" y="512" type="line"/>
      <point x="293" y="447" type="line"/>
      <point x="343" y="340" type="line"/>
      <point x="269" y="260" type="line"/>
      <point x="148" y="364" type="line"/>
      <point x="49" y="313" type="line"/>
      <point x="4" y="405" type="line"/>
      <point x="73" y="486" type="line"/>
      <point x="18" y="576" type="line"/>
      <point x="67" y="661" type="line"/>
      <point x="137" y="612" type="line"/>
      <point x="149" y="722" type="line"/>
      <point x="241" y="748" type="line"/>
      <point x="277" y="632" type="line"/>
      <point x="356" y="634" type="line"/>
    </contour>
  </outline>
</glyph>
<glyph name="plus" format="1">
  <advance width="400"/>
  <unicode hex="002B"/>
  <outline>
    <contour>
      <point x="397" y="429" type="line"/>
      <point x="384" y="273" type="line"/>
      <point x="280" y="271" type="line"/>
      <point x="278" y="127" type="line"/>
      <point x="100" y="151" type="line"/>
      <point x="115" y="282" type="line"/>
      <point x="2" y="307" type="line"/>
      <point x="11" y="461" type="line"/>
      <point x="110" y="454" type="line"/>
      <point x="107" y="580" type="line"/>
      <point x="279" y="585" type="line"/>
      <point x="275" y="440" type="line"/>
    </contour>
  </outline>
</glyph>
<glyph name="comma" format="1">
  <advance width="245"/>
  <unicode hex="002C"/>
  <outline>
    <contour>
      <point x="239" y="201" type="line"/>
      <point x="199" y="-72" type="line"/>
      <point x="4" y="-85" type="line"/>
      <point x="19" y="232" type="line"/>
    </contour>
  </outline>
</glyph>
<glyph name="hyphen" format="1">
  <advance width="256"/>
  <unicode hex="002D"/>
  <unicode hex="2010"/>
  <unicode hex="2011"/>
  <outline>
    <contour>
      <point x="250" y="433" type="line"/>
      <point x="244" y="194" type="line"/>
      <point x="6" y="210" type="line"/>
      <point x="13" y="463" type="line"/>
    </contour>
  </outline>
</glyph>
<glyph name="period" format="1">
  <advance width="245"/>
  <unicode hex="002E"/>
  <outline>
    <contour>
      <point x="238" y="-11" type="line"/>
      <point x="11" y="-7" type="line"/>
      <point x="8" y="225" type="line"/>
      <point x="235" y="241" type="line"/>
    </contour>
  </outline>
</glyph>
<glyph name="slash" format="1">
  <advance width="313"/>
  <unicode hex="002F"/>
  <outline>
    <contour>
      <point x="313" y="707" type="line"/>
      <point x="199" y="-13" type="line"/>
      <point x="0" y="4" type="line"/>
      <point x="83" y="725" type="line"/>
    </contour>
  </outline>
</glyph>
<glyph name="zero" format="1">
  <advance width="540"/>
  <unicode hex="0030"/>
  <outline>
    <contour>
      <point x="535" y="356" type="curve" smooth="yes"/>
      <point x="535" y="58"/>
      <point x="483" y="-13"/>
      <point x="280" y="-13" type="curve" smooth="yes"/>
      <point x="48" y="-13"/>
      <point x="5" y="83"/>
      <point x="5" y="306" type="curve" smooth="yes"/>
      <point x="5" y="697"/>
      <point x="67" y="727"/>
      <point x="240" y="727" type="curve" smooth="yes"/>
      <point x="491" y="727"/>
      <point x="535" y="652"/>
    </contour>
    <contour>
      <point x="289" y="350" type="curve" smooth="yes"/>
      <point x="289" y="515"/>
      <point x="289" y="530"/>
      <point x="270" y="530" type="curve" smooth="yes"/>
      <point x="252" y="530"/>
      <point x="251" y="515"/>
      <point x="251" y="336" type="curve" smooth="yes"/>
      <point x="251" y="182"/>
      <point x="256" y="180"/>
      <point x="267" y="180" type="curve" smooth="yes"/>
      <point x="284" y="180"/>
      <point x="289" y="186"/>
    </contour>
  </outline>
</glyph>
<glyph name="one" format="1">
  <advance width="373"/>
  <unicode hex="0031"/>
  <outline>
    <contour>
      <point x="364" y="713" type="line"/>
      <point x="348" y="7" type="line"/>
      <point x="110" y="11" type="line"/>
      <point x="105" y="475" type="line"/>
      <point x="19" y="449" type="line"/>
      <point x="2" y="673" type="line"/>
      <point x="118" y="718" type="line"/>
    </contour>
  </outline>
</glyph>
<glyph name="two" format="1">
  <advance width="481"/>
  <unicode hex="0032"/>
  <outline>
    <contour>
      <point x="475" y="213" type="line"/>
      <point x="461" y="-14" type="line"/>
      <point x="22" y="14" type="line"/>
      <point x="19" y="206" type="line"/>
      <point x="140" y="290"/>
      <point x="182" y="339"/>
      <point x="182" y="406" type="curve" smooth="yes"/>
      <point x="182" y="461"/>
      <point x="163" y="480"/>
      <point x="119" y="480" type="curve" smooth="yes"/>
      <point x="86" y="480"/>
      <point x="49" y="472"/>
      <point x="16" y="461" type="curve"/>
      <point x="3" y="684" type="line"/>
      <point x="81" y="714"/>
      <point x="185" y="727"/>
      <point x="262" y="727" type="curve" smooth="yes"/>
      <point x="394" y="727"/>
      <point x="474" y="696"/>
      <point x="474" y="561" type="curve" smooth="yes"/>
      <point x="474" y="418"/>
      <point x="414" y="319"/>
      <point x="329" y="222" type="curve"/>
    </contour>
  </outline>
</glyph>
<glyph name="three" format="1">
  <advance width="470"/>
  <unicode hex="0033"/>
  <outline>
    <contour>
      <point x="461" y="704" type="line"/>
      <point x="448" y="496" type="line"/>
      <point x="296" y="371" type="line"/>
      <point x="422" y="361"/>
      <point x="460" y="321"/>
      <point x="460" y="187" type="curve" smooth="yes"/>
      <point x="460" y="33"/>
      <point x="396" y="-9"/>
      <point x="226" y="-9" type="curve" smooth="yes"/>
      <point x="149" y="-9"/>
      <point x="73" y="4"/>
      <point x="8" y="22" type="curve"/>
      <point x="22" y="202" type="line"/>
      <point x="73" y="188"/>
      <point x="108" y="181"/>
      <point x="149" y="181" type="curve" smooth="yes"/>
      <point x="186" y="181"/>
      <point x="208" y="191"/>
      <point x="208" y="230" type="curve" smooth="yes"/>
      <point x="208" y="263"/>
      <point x="192" y="277"/>
      <point x="149" y="277" type="curve" smooth="yes"/>
      <point x="126" y="277"/>
      <point x="109" y="275"/>
      <point x="88" y="271" type="curve"/>
      <point x="44" y="376" type="line"/>
      <point x="191" y="516" type="line"/>
      <point x="4" y="521" type="line"/>
      <point x="13" y="720" type="line"/>
    </contour>
  </outline>
</glyph>
<glyph name="four" format="1">
  <advance width="511"/>
  <unicode hex="0034"/>
  <outline>
    <contour>
      <point x="507" y="275" type="line"/>
      <point x="504" y="93" type="line"/>
      <point x="436" y="98" type="line"/>
      <point x="432" y="1" type="line"/>
      <point x="258" y="-12" type="line"/>
      <point x="254" y="121" type="line"/>
      <point x="19" y="130" type="line"/>
      <point x="3" y="277" type="line"/>
      <point x="165" y="721" type="line"/>
      <point x="452" y="715" type="line"/>
      <point x="446" y="278" type="line"/>
    </contour>
    <contour>
      <point x="277" y="507" type="line"/>
      <point x="222" y="297" type="line"/>
      <point x="273" y="292" type="line"/>
    </contour>
  </outline>
</glyph>
<glyph name="five" format="1">
  <advance width="475"/>
  <unicode hex="0035"/>
  <outline>
    <contour>
      <point x="465" y="261" type="curve" smooth="yes"/>
      <point x="465" y="37"/>
      <point x="420" y="-9"/>
      <point x="259" y="-9" type="curve" smooth="yes"/>
      <point x="188" y="-9"/>
      <point x="75" y="4"/>
      <point x="14" y="27" type="curve"/>
      <point x="22" y="222" type="line"/>
      <point x="81" y="203"/>
      <point x="124" y="193"/>
      <point x="169" y="193" type="curve" smooth="yes"/>
      <point x="222" y="193"/>
      <point x="241" y="200"/>
      <point x="241" y="235" type="curve" smooth="yes"/>
      <point x="241" y="277"/>
      <point x="221" y="290"/>
      <point x="16" y="308" type="curve"/>
      <point x="2" y="709" type="line"/>
      <point x="460" y="731" type="line"/>
      <point x="458" y="504" type="line"/>
      <point x="224" y="529" type="line"/>
      <point x="223" y="472" type="line"/>
      <point x="413" y="444"/>
      <point x="465" y="412"/>
    </contour>
  </outline>
</glyph>
<glyph name="six" format="1">
  <advance width="491"/>
  <unicode hex="0036"/>
  <outline>
    <contour>
      <point x="487" y="225" type="curve" smooth="yes"/>
      <point x="487" y="32"/>
      <point x="424" y="-9"/>
      <point x="235" y="-9" type="curve" smooth="yes"/>
      <point x="39" y="-9"/>
      <point x="8" y="57"/>
      <point x="8" y="346" type="curve" smooth="yes"/>
      <point x="8" y="644"/>
      <point x="83" y="725"/>
      <point x="247" y="725" type="curve" smooth="yes"/>
      <point x="342" y="725"/>
      <point x="413" y="715"/>
      <point x="467" y="698" type="curve"/>
      <point x="457" y="506" type="line"/>
      <point x="415" y="515"/>
      <point x="370" y="519"/>
      <point x="340" y="519" type="curve" smooth="yes"/>
      <point x="245" y="519"/>
      <point x="235" y="494"/>
      <point x="232" y="447" type="curve"/>
      <point x="259" y="461"/>
      <point x="289" y="469"/>
      <point x="331" y="469" type="curve" smooth="yes"/>
      <point x="459" y="469"/>
      <point x="487" y="423"/>
    </contour>
    <contour>
      <point x="267" y="205" type="curve" smooth="yes"/>
      <point x="267" y="295"/>
      <point x="266" y="308"/>
      <point x="254" y="308" type="curve" smooth="yes"/>
      <point x="233" y="308"/>
      <point x="232" y="298"/>
      <point x="232" y="212" type="curve" smooth="yes"/>
      <point x="232" y="155"/>
      <point x="235" y="138"/>
      <point x="250" y="138" type="curve" smooth="yes"/>
      <point x="263" y="138"/>
      <point x="267" y="152"/>
    </contour>
  </outline>
</glyph>
<glyph name="seven" format="1">
  <advance width="454"/>
  <unicode hex="0037"/>
  <outline>
    <contour>
      <point x="448" y="495" type="line"/>
      <point x="281" y="-9" type="line"/>
      <point x="59" y="22" type="line"/>
      <point x="179" y="470" type="line"/>
      <point x="2" y="490" type="line"/>
      <point x="11" y="722" type="line"/>
      <point x="437" y="709" type="line"/>
    </contour>
  </outline>
</glyph>
<glyph name="eight" format="1">
  <advance width="486"/>
  <unicode hex="0038"/>
  <outline>
    <contour>
      <point x="484" y="166" type="curve" smooth="yes"/>
      <point x="484" y="27"/>
      <point x="412" y="-13"/>
      <point x="230" y="-13" type="curve" smooth="yes"/>
      <point x="68" y="-13"/>
      <point x="4" y="35"/>
      <point x="4" y="179" type="curve" smooth="yes"/>
      <point x="4" y="278"/>
      <point x="32" y="323"/>
      <point x="77" y="364" type="curve"/>
      <point x="40" y="402"/>
      <point x="14" y="444"/>
      <point x="14" y="545" type="curve" smooth="yes"/>
      <point x="14" y="679"/>
      <point x="75" y="727"/>
      <point x="271" y="727" type="curve" smooth="yes"/>
      <point x="435" y="727"/>
      <point x="479" y="678"/>
      <point x="479" y="529" type="curve" smooth="yes"/>
      <point x="479" y="424"/>
      <point x="447" y="382"/>
      <point x="407" y="346" type="curve"/>
      <point x="457" y="310"/>
      <point x="484" y="261"/>
    </contour>
    <contour>
      <point x="272" y="499" type="curve" smooth="yes"/>
      <point x="272" y="562"/>
      <point x="269" y="572"/>
      <point x="259" y="572" type="curve" smooth="yes"/>
      <point x="238" y="572"/>
      <point x="237" y="566"/>
      <point x="237" y="503" type="curve" smooth="yes"/>
      <point x="237" y="436"/>
      <point x="239" y="421"/>
      <point x="254" y="421" type="curve" smooth="yes"/>
      <point x="269" y="421"/>
      <point x="272" y="439"/>
    </contour>
    <contour>
      <point x="265" y="209" type="curve" smooth="yes"/>
      <point x="265" y="273"/>
      <point x="263" y="284"/>
      <point x="252" y="284" type="curve" smooth="yes"/>
      <point x="235" y="284"/>
      <point x="232" y="274"/>
      <point x="232" y="200" type="curve" smooth="yes"/>
      <point x="232" y="148"/>
      <point x="235" y="137"/>
      <point x="245" y="137" type="curve" smooth="yes"/>
      <point x="262" y="137"/>
      <point x="265" y="147"/>
    </contour>
  </outline>
</glyph>
<glyph name="nine" format="1">
  <advance width="491"/>
  <unicode hex="0039"/>
  <outline>
    <contour>
      <point x="484" y="396" type="curve" smooth="yes"/>
      <point x="484" y="50"/>
      <point x="421" y="-9"/>
      <point x="239" y="-9" type="curve" smooth="yes"/>
      <point x="167" y="-9"/>
      <point x="99" y="-5"/>
      <point x="10" y="22" type="curve"/>
      <point x="23" y="221" type="line"/>
      <point x="92" y="197"/>
      <point x="152" y="185"/>
      <point x="190" y="185" type="curve" smooth="yes"/>
      <point x="252" y="185"/>
      <point x="267" y="197"/>
      <point x="267" y="256" type="curve"/>
      <point x="239" y="241"/>
      <point x="216" y="236"/>
      <point x="167" y="236" type="curve" smooth="yes"/>
      <point x="61" y="236"/>
      <point x="5" y="305"/>
      <point x="5" y="500" type="curve" smooth="yes"/>
      <point x="5" y="661"/>
      <point x="55" y="727"/>
      <point x="240" y="727" type="curve" smooth="yes"/>
      <point x="440" y="727"/>
      <point x="484" y="679"/>
    </contour>
    <contour>
      <point x="269" y="467" type="curve" smooth="yes"/>
      <point x="269" y="547"/>
      <point x="267" y="556"/>
      <point x="253" y="556" type="curve" smooth="yes"/>
      <point x="232" y="556"/>
      <point x="231" y="544"/>
      <point x="231" y="457" type="curve" smooth="yes"/>
      <point x="231" y="403"/>
      <point x="232" y="381"/>
      <point x="251" y="381" type="curve" smooth="yes"/>
      <point x="265" y="381"/>
      <point x="269" y="387"/>
    </contour>
  </outline>
</glyph>
<glyph name="colon" format="1">
  <advance width="245"/>
  <unicode hex="003A"/>
  <outline>
    <contour>
      <point x="232" y="271" type="line"/>
      <point x="18" y="266" type="line"/>
      <point x="19" y="509" type="line"/>
      <point x="230" y="527" type="line"/>
    </contour>
    <contour>
      <point x="230" y="216" type="line"/>
      <point x="226" y="-9" type="line"/>
      <point x="8" y="-4" type="line"/>
      <point x="18" y="238" type="line"/>
    </contour>
  </outline>
</glyph>
<glyph name="semicolon" format="1">
  <advance width="245"/>
  <unicode hex="003B"/>
  <outline>
    <contour>
      <point x="233" y="266" type="line"/>
      <point x="23" y="253" type="line"/>
      <point x="14" y="494" type="line"/>
      <point x="223" y="527" type="line"/>
    </contour>
    <contour>
      <point x="235" y="217" type="line"/>
      <point x="213" y="-34" type="line"/>
      <point x="19" y="-67" type="line"/>
      <point x="13" y="225" type="line"/>
    </contour>
  </outline>
</glyph>
<glyph name="less" format="1">
  <advance width="353"/>
  <unicode hex="003C"/>
  <outline>
    <contour>
      <point x="349" y="647" type="line"/>
      <point x="239" y="370" type="line"/>
      <point x="334" y="51" type="line"/>
      <point x="121" y="73" type="line"/>
      <point x="2" y="337" type="line"/>
      <point x="114" y="625" type="line"/>
    </contour>
  </outline>
</glyph>
<glyph name="equal" format="1">
  <advance width="394"/>
  <unicode hex="003D"/>
  <outline>
    <contour>
      <point x="382" y="574" type="line"/>
      <point x="361" y="362" type="line"/>
      <point x="4" y="384" type="line"/>
      <point x="22" y="579" type="line"/>
    </contour>
    <contour>
      <point x="383" y="336" type="line"/>
      <point x="377" y="122" type="line"/>
      <point x="22" y="146" type="line"/>
      <point x="15" y="327" type="line"/>
    </contour>
  </outline>
</glyph>
<glyph name="greater" format="1">
  <advance width="353"/>
  <unicode hex="003E"/>
  <outline>
    <contour>
      <point x="351" y="360" type="line"/>
      <point x="229" y="58" type="line"/>
      <point x="5" y="72" type="line"/>
      <point x="117" y="387" type="line"/>
      <point x="5" y="596" type="line"/>
      <point x="230" y="629" type="line"/>
    </contour>
  </outline>
</glyph>
<glyph name="question" format="1">
  <advance width="389"/>
  <unicode hex="003F"/>
  <outline>
    <contour>
      <point x="386" y="575" type="curve" smooth="yes"/>
      <point x="386" y="445"/>
      <point x="342" y="340"/>
      <point x="294" y="243" type="curve"/>
      <point x="71" y="253" type="line"/>
      <point x="104" y="326"/>
      <point x="121" y="375"/>
      <point x="121" y="440" type="curve" smooth="yes"/>
      <point x="121" y="488"/>
      <point x="105" y="508"/>
      <point x="74" y="508" type="curve" smooth="yes"/>
      <point x="55" y="508"/>
      <point x="31" y="506"/>
      <point x="14" y="502" type="curve"/>
      <point x="2" y="706" type="line"/>
      <point x="46" y="717"/>
      <point x="131" y="726"/>
      <point x="206" y="726" type="curve" smooth="yes"/>
      <point x="353" y="726"/>
      <point x="386" y="687"/>
    </contour>
    <contour>
      <point x="301" y="-4" type="line"/>
      <point x="73" y="13" type="line"/>
      <point x="75" y="205" type="line"/>
      <point x="301" y="213" type="line"/>
    </contour>
  </outline>
</glyph>
<glyph name="at" format="1">
  <advance width="540"/>
  <unicode hex="0040"/>
  <outline>
    <contour>
      <point x="536" y="227" type="line"/>
      <point x="384" y="189" type="line"/>
      <point x="374" y="221" type="line"/>
      <point x="334" y="195"/>
      <point x="300" y="182"/>
      <point x="264" y="182" type="curve" smooth="yes"/>
      <point x="198" y="182"/>
      <point x="177" y="223"/>
      <point x="177" y="316" type="curve" smooth="yes"/>
      <point x="177" y="456"/>
      <point x="208" y="507"/>
      <point x="310" y="505" type="curve" smooth="yes"/>
      <point x="361" y="504" type="line"/>
      <point x="357" y="581"/>
      <point x="341" y="583"/>
      <point x="270" y="583" type="curve" smooth="yes"/>
      <point x="175" y="583"/>
      <point x="140" y="525"/>
      <point x="140" y="327" type="curve" smooth="yes"/>
      <point x="140" y="159"/>
      <point x="172" y="114"/>
      <point x="304" y="114" type="curve" smooth="yes"/>
      <point x="372" y="114"/>
      <point x="434" y="133"/>
      <point x="497" y="170" type="curve"/>
      <point x="526" y="56" type="line"/>
      <point x="465" y="12"/>
      <point x="376" y="-12"/>
      <point x="275" y="-12" type="curve" smooth="yes"/>
      <point x="91" y="-12"/>
      <point x="5" y="45"/>
      <point x="5" y="321" type="curve" smooth="yes"/>
      <point x="5" y="629"/>
      <point x="87" y="726"/>
      <point x="277" y="726" type="curve" smooth="yes"/>
      <point x="474" y="726"/>
      <point x="521" y="663"/>
      <point x="526" y="515" type="curve" smooth="yes"/>
    </contour>
    <contour>
      <point x="364" y="321" type="curve"/>
      <point x="360" y="397" type="line"/>
      <point x="320" y="392"/>
      <point x="311" y="381"/>
      <point x="311" y="344" type="curve" smooth="yes"/>
      <point x="311" y="324"/>
      <point x="318" y="314"/>
      <point x="336" y="314" type="curve" smooth="yes"/>
      <point x="346" y="314"/>
      <point x="355" y="315"/>
    </contour>
  </outline>
</glyph>
<glyph name="A" format="1">
  <advance width="518"/>
  <unicode hex="0041"/>
  <outline>
    <contour>
      <point x="518" y="0" type="line"/>
      <point x="296" y="-30" type="line"/>
      <point x="287" y="74" type="line"/>
      <point x="217" y="64" type="line"/>
      <point x="210" y="-3" type="line"/>
      <point x="1" y="12" type="line"/>
      <point x="89" y="727" type="line"/>
      <point x="397" y="711" type="line"/>
    </contour>
    <contour>
      <point x="273" y="221" type="line"/>
      <point x="256" y="411" type="line"/>
      <point x="234" y="213" type="line"/>
    </contour>
  </outline>
</glyph>
<glyph name="B" format="1">
  <advance width="486"/>
  <unicode hex="0042"/>
  <outline>
    <contour>
      <point x="483" y="174" type="curve" smooth="yes"/>
      <point x="483" y="30"/>
      <point x="409" y="-12"/>
      <point x="312" y="-7" type="curve" smooth="yes"/>
      <point x="9" y="8" type="line"/>
      <point x="16" y="713" type="line"/>
      <point x="291" y="724" type="line" smooth="yes"/>
      <point x="420" y="729"/>
      <point x="482" y="682"/>
      <point x="482" y="539" type="curve" smooth="yes"/>
      <point x="482" y="429"/>
      <point x="452" y="381"/>
      <point x="424" y="346" type="curve"/>
      <point x="458" y="311"/>
      <point x="483" y="271"/>
    </contour>
    <contour>
      <point x="268" y="485" type="curve" smooth="yes"/>
      <point x="268" y="552"/>
      <point x="255" y="555"/>
      <point x="230" y="551" type="curve"/>
      <point x="234" y="421" type="line"/>
      <point x="256" y="427"/>
      <point x="268" y="442"/>
    </contour>
    <contour>
      <point x="270" y="220" type="curve" smooth="yes"/>
      <point x="270" y="260"/>
      <point x="266" y="272"/>
      <point x="235" y="270" type="curve"/>
      <point x="226" y="158" type="line"/>
      <point x="259" y="149"/>
      <point x="270" y="166"/>
    </contour>
  </outline>
</glyph>
<glyph name="C" format="1">
  <advance width="464"/>
  <unicode hex="0043"/>
  <outline>
    <contour>
      <point x="461" y="686" type="curve"/>
      <point x="439" y="423" type="line"/>
      <point x="398" y="449"/>
      <point x="377" y="457"/>
      <point x="346" y="457" type="curve" smooth="yes"/>
      <point x="295" y="457"/>
      <point x="281" y="427"/>
      <point x="281" y="347" type="curve" smooth="yes"/>
      <point x="281" y="280"/>
      <point x="297" y="232"/>
      <point x="360" y="232" type="curve" smooth="yes"/>
      <point x="389" y="232"/>
      <point x="405" y="236"/>
      <point x="432" y="246" type="curve"/>
      <point x="455" y="23" type="line"/>
      <point x="394" y="2"/>
      <point x="349" y="-11"/>
      <point x="251" y="-11" type="curve" smooth="yes"/>
      <point x="37" y="-11"/>
      <point x="5" y="101"/>
      <point x="5" y="371" type="curve" smooth="yes"/>
      <point x="5" y="640"/>
      <point x="44" y="727"/>
      <point x="247" y="727" type="curve" smooth="yes"/>
      <point x="334" y="727"/>
      <point x="400" y="714"/>
    </contour>
  </outline>
</glyph>
<glyph name="D" format="1">
  <advance width="541"/>
  <unicode hex="0044"/>
  <outline>
    <contour>
      <point x="535" y="398" type="curve" smooth="yes"/>
      <point x="535" y="81"/>
      <point x="460" y="-14"/>
      <point x="293" y="-7" type="curve" smooth="yes"/>
      <point x="14" y="4" type="line"/>
      <point x="10" y="716" type="line"/>
      <point x="365" y="725" type="line" smooth="yes"/>
      <point x="466" y="728"/>
      <point x="535" y="699"/>
    </contour>
    <contour>
      <point x="290" y="373" type="curve" smooth="yes"/>
      <point x="290" y="488"/>
      <point x="286" y="500"/>
      <point x="253" y="500" type="curve"/>
      <point x="255" y="201" type="line"/>
      <point x="284" y="205"/>
      <point x="290" y="219"/>
    </contour>
  </outline>
</glyph>
<glyph name="E" format="1">
  <advance width="445"/>
  <unicode hex="0045"/>
  <outline>
    <contour>
      <point x="438" y="516" type="line"/>
      <point x="252" y="508" type="line"/>
      <point x="256" y="445" type="line"/>
      <point x="398" y="470" type="line"/>
      <point x="407" y="283" type="line"/>
      <point x="267" y="267" type="line"/>
      <point x="265" y="224" type="line"/>
      <point x="427" y="215" type="line"/>
      <point x="426" y="-7" type="line"/>
      <point x="13" y="6" type="line"/>
      <point x="8" y="711" type="line"/>
      <point x="432" y="725" type="line"/>
    </contour>
  </outline>
</glyph>
<glyph name="F" format="1">
  <advance width="454"/>
  <unicode hex="0046"/>
  <outline>
    <contour>
      <point x="442" y="710" type="line"/>
      <point x="434" y="479" type="line"/>
      <point x="264" y="484" type="line"/>
      <point x="261" y="390" type="line"/>
      <point x="403" y="400" type="line"/>
      <point x="408" y="196" type="line"/>
      <point x="273" y="191" type="line"/>
      <point x="266" y="-3" type="line"/>
      <point x="13" y="6" type="line"/>
      <point x="17" y="728" type="line"/>
    </contour>
  </outline>
</glyph>
<glyph name="G" format="1">
  <advance width="513"/>
  <unicode hex="0047"/>
  <outline>
    <contour>
      <point x="505" y="690" type="curve"/>
      <point x="482" y="456" type="line"/>
      <point x="419" y="476"/>
      <point x="384" y="483"/>
      <point x="350" y="483" type="curve" smooth="yes"/>
      <point x="284" y="483"/>
      <point x="261" y="455"/>
      <point x="261" y="358" type="curve" smooth="yes"/>
      <point x="261" y="239"/>
      <point x="266" y="181"/>
      <point x="300" y="181" type="curve"/>
      <point x="293" y="379" type="line"/>
      <point x="501" y="405" type="line"/>
      <point x="496" y="41" type="line"/>
      <point x="401" y="8"/>
      <point x="313" y="-9"/>
      <point x="221" y="-9" type="curve" smooth="yes"/>
      <point x="72" y="-9"/>
      <point x="6" y="132"/>
      <point x="6" y="391" type="curve" smooth="yes"/>
      <point x="6" y="669"/>
      <point x="49" y="731"/>
      <point x="289" y="731" type="curve" smooth="yes"/>
      <point x="354" y="731"/>
      <point x="427" y="719"/>
    </contour>
  </outline>
</glyph>
<glyph name="H" format="1">
  <advance width="535"/>
  <unicode hex="0048"/>
  <outline>
    <contour>
      <point x="527" y="710" type="line"/>
      <point x="514" y="-2" type="line"/>
      <point x="275" y="22" type="line"/>
      <point x="283" y="227" type="line"/>
      <point x="251" y="221" type="line"/>
      <point x="248" y="3" type="line"/>
      <point x="19" y="-5" type="line"/>
      <point x="7" y="721" type="line"/>
      <point x="263" y="727" type="line"/>
      <point x="258" y="408" type="line"/>
      <point x="284" y="404" type="line"/>
      <point x="294" y="719" type="line"/>
    </contour>
  </outline>
</glyph>
<glyph name="I" format="1">
  <advance width="270"/>
  <unicode hex="0049"/>
  <outline>
    <contour>
      <point x="262" y="705" type="line"/>
      <point x="246" y="-6" type="line"/>
      <point x="15" y="7" type="line"/>
      <point x="8" y="730" type="line"/>
    </contour>
  </outline>
</glyph>
<glyph name="J" format="1">
  <advance width="355"/>
  <unicode hex="004A"/>
  <outline>
    <contour>
      <point x="347" y="728" type="line"/>
      <point x="334" y="182" type="line" smooth="yes"/>
      <point x="331" y="51"/>
      <point x="274" y="-7"/>
      <point x="158" y="-7" type="curve" smooth="yes"/>
      <point x="91" y="-7"/>
      <point x="47" y="1"/>
      <point x="-1" y="20" type="curve"/>
      <point x="7" y="235" type="line"/>
      <point x="19" y="230"/>
      <point x="35" y="228"/>
      <point x="46" y="228" type="curve" smooth="yes"/>
      <point x="81" y="228"/>
      <point x="95" y="240"/>
      <point x="94" y="309" type="curve" smooth="yes"/>
      <point x="91" y="718" type="line"/>
    </contour>
  </outline>
</glyph>
<glyph name="K" format="1">
  <advance width="551"/>
  <unicode hex="004B"/>
  <outline>
    <contour>
      <point x="548" y="704" type="line"/>
      <point x="454" y="483" type="line"/>
      <point x="545" y="9" type="line"/>
      <point x="311" y="-13" type="line"/>
      <point x="274" y="205" type="line"/>
      <point x="259" y="177" type="line"/>
      <point x="260" y="5" type="line"/>
      <point x="13" y="-13" type="line"/>
      <point x="10" y="720" type="line"/>
      <point x="254" y="725" type="line"/>
      <point x="256" y="483" type="line"/>
      <point x="323" y="724" type="line"/>
    </contour>
  </outline>
</glyph>
<glyph name="L" format="1">
  <advance width="427"/>
  <unicode hex="004C"/>
  <outline>
    <contour>
      <point x="423" y="249" type="line"/>
      <point x="404" y="-8" type="line"/>
      <point x="11" y="5" type="line"/>
      <point x="13" y="724" type="line"/>
      <point x="278" y="733" type="line"/>
      <point x="282" y="236" type="line"/>
    </contour>
  </outline>
</glyph>
<glyph name="M" format="1">
  <advance width="668"/>
  <unicode hex="004D"/>
  <outline>
    <contour>
      <point x="661" y="677" type="line"/>
      <point x="652" y="-9" type="line"/>
      <point x="454" y="3" type="line"/>
      <point x="437" y="291" type="line"/>
      <point x="402" y="11" type="line"/>
      <point x="278" y="-13" type="line"/>
      <point x="216" y="367" type="line"/>
      <point x="232" y="7" type="line"/>
      <point x="11" y="4" type="line"/>
      <point x="8" y="706" type="line"/>
      <point x="293" y="719" type="line"/>
      <point x="352" y="448" type="line"/>
      <point x="386" y="729" type="line"/>
    </contour>
  </outline>
</glyph>
<glyph name="N" format="1">
  <advance width="545"/>
  <unicode hex="004E"/>
  <outline>
    <contour>
      <point x="532" y="19" type="line"/>
      <point x="296" y="-7" type="line"/>
      <point x="240" y="206" type="line"/>
      <point x="244" y="7" type="line"/>
      <point x="14" y="7" type="line"/>
      <point x="8" y="707" type="line"/>
      <point x="265" y="724" type="line"/>
      <point x="326" y="473" type="line"/>
      <point x="321" y="703" type="line"/>
      <point x="530" y="723" type="line"/>
    </contour>
  </outline>
</glyph>
<glyph name="O" format="1">
  <advance width="540"/>
  <unicode hex="004F"/>
  <outline>
    <contour>
      <point x="534" y="331" type="curve" smooth="yes"/>
      <point x="534" y="37"/>
      <point x="485" y="-13"/>
      <point x="240" y="-13" type="curve" smooth="yes"/>
      <point x="36" y="-13"/>
      <point x="6" y="62"/>
      <point x="6" y="341" type="curve" smooth="yes"/>
      <point x="6" y="679"/>
      <point x="51" y="727"/>
      <point x="303" y="727" type="curve" smooth="yes"/>
      <point x="473" y="727"/>
      <point x="534" y="650"/>
    </contour>
    <contour>
      <point x="290" y="402" type="curve" smooth="yes"/>
      <point x="290" y="512"/>
      <point x="287" y="517"/>
      <point x="273" y="517" type="curve" smooth="yes"/>
      <point x="256" y="517"/>
      <point x="253" y="510"/>
      <point x="253" y="344" type="curve" smooth="yes"/>
      <point x="253" y="196"/>
      <point x="257" y="185"/>
      <point x="270" y="185" type="curve" smooth="yes"/>
      <point x="284" y="185"/>
      <point x="290" y="191"/>
    </contour>
  </outline>
</glyph>
<glyph name="P" format="1">
  <advance width="521"/>
  <unicode hex="0050"/>
  <outline>
    <contour>
      <point x="511" y="472" type="curve" smooth="yes"/>
      <point x="511" y="256"/>
      <point x="434" y="191"/>
      <point x="258" y="169" type="curve"/>
      <point x="263" y="9" type="line"/>
      <point x="19" y="-5" type="line"/>
      <point x="10" y="716" type="line"/>
      <point x="327" y="725" type="line" smooth="yes"/>
      <point x="452" y="729"/>
      <point x="511" y="698"/>
    </contour>
    <contour>
      <point x="289" y="471" type="curve" smooth="yes"/>
      <point x="289" y="527"/>
      <point x="280" y="535"/>
      <point x="255" y="531" type="curve"/>
      <point x="258" y="349" type="line"/>
      <point x="280" y="356"/>
      <point x="289" y="384"/>
    </contour>
  </outline>
</glyph>
<glyph name="Q" format="1">
  <advance width="540"/>
  <unicode hex="0051"/>
  <outline>
    <contour>
      <point x="535" y="431" type="curve" smooth="yes"/>
      <point x="535" y="188"/>
      <point x="511" y="73"/>
      <point x="428" y="22" type="curve"/>
      <point x="455" y="-65" type="line"/>
      <point x="247" y="-113" type="line"/>
      <point x="207" y="-3" type="line"/>
      <point x="30" y="26"/>
      <point x="7" y="108"/>
      <point x="7" y="277" type="curve" smooth="yes"/>
      <point x="7" y="597"/>
      <point x="31" y="724"/>
      <point x="215" y="724" type="curve" smooth="yes"/>
      <point x="451" y="724"/>
      <point x="535" y="692"/>
    </contour>
    <contour>
      <point x="287" y="306" type="curve" smooth="yes"/>
      <point x="287" y="520"/>
      <point x="281" y="523"/>
      <point x="267" y="523" type="curve" smooth="yes"/>
      <point x="253" y="523"/>
      <point x="250" y="514"/>
      <point x="250" y="364" type="curve" smooth="yes"/>
      <point x="250" y="202"/>
      <point x="253" y="191"/>
      <point x="269" y="191" type="curve" smooth="yes"/>
      <point x="284" y="191"/>
      <point x="287" y="201"/>
    </contour>
  </outline>
</glyph>
<glyph name="R" format="1">
  <advance width="540"/>
  <unicode hex="0052"/>
  <outline>
    <contour>
      <point x="548" y="22" type="line"/>
      <point x="292" y="-7" type="line"/>
      <point x="252" y="216" type="line"/>
      <point x="247" y="-16" type="line"/>
      <point x="11" y="1" type="line"/>
      <point x="12" y="708" type="line"/>
      <point x="326" y="713" type="line" smooth="yes"/>
      <point x="474" y="715"/>
      <point x="520" y="645"/>
      <point x="520" y="491" type="curve" smooth="yes"/>
      <point x="520" y="415"/>
      <point x="495" y="352"/>
      <point x="454" y="299" type="curve"/>
    </contour>
    <contour>
      <point x="287" y="470" type="curve" smooth="yes"/>
      <point x="287" y="524"/>
      <point x="276" y="540"/>
      <point x="251" y="542" type="curve"/>
      <point x="252" y="383" type="line"/>
      <point x="276" y="388"/>
      <point x="287" y="400"/>
    </contour>
  </outline>
</glyph>
<glyph name="S" format="1">
  <advance width="473"/>
  <unicode hex="0053"/>
  <outline>
    <contour>
      <point x="472" y="683" type="curve"/>
      <point x="445" y="449" type="line"/>
      <point x="386" y="476"/>
      <point x="313" y="494"/>
      <point x="260" y="494" type="curve" smooth="yes"/>
      <point x="229" y="494"/>
      <point x="223" y="491"/>
      <point x="223" y="479" type="curve" smooth="yes"/>
      <point x="223" y="467"/>
      <point x="228" y="464"/>
      <point x="283" y="449" type="curve" smooth="yes"/>
      <point x="427" y="409"/>
      <point x="462" y="365"/>
      <point x="462" y="219" type="curve" smooth="yes"/>
      <point x="462" y="40"/>
      <point x="419" y="-8"/>
      <point x="230" y="-8" type="curve" smooth="yes"/>
      <point x="154" y="-8"/>
      <point x="56" y="10"/>
      <point x="0" y="42" type="curve"/>
      <point x="11" y="255" type="line"/>
      <point x="72" y="220"/>
      <point x="162" y="190"/>
      <point x="224" y="190" type="curve" smooth="yes"/>
      <point x="238" y="190"/>
      <point x="241" y="195"/>
      <point x="241" y="206" type="curve" smooth="yes"/>
      <point x="241" y="220"/>
      <point x="234" y="223"/>
      <point x="206" y="230" type="curve" smooth="yes"/>
      <point x="47" y="270"/>
      <point x="5" y="322"/>
      <point x="5" y="493" type="curve" smooth="yes"/>
      <point x="5" y="688"/>
      <point x="56" y="724"/>
      <point x="247" y="724" type="curve" smooth="yes"/>
      <point x="337" y="724"/>
      <point x="412" y="708"/>
    </contour>
  </outline>
</glyph>
<glyph name="T" format="1">
  <advance width="470"/>
  <unicode hex="0054"/>
  <outline>
    <contour>
      <point x="461" y="711" type="line"/>
      <point x="459" y="478" type="line"/>
      <point x="357" y="488" type="line"/>
      <point x="359" y="-8" type="line"/>
      <point x="95" y="13" type="line"/>
      <point x="111" y="483" type="line"/>
      <point x="3" y="501" type="line"/>
      <point x="8" y="725" type="line"/>
    </contour>
  </outline>
</glyph>
<glyph name="U" format="1">
  <advance width="540"/>
  <unicode hex="0055"/>
  <outline>
    <contour>
      <point x="530" y="303" type="line" smooth="yes"/>
      <point x="533" y="56"/>
      <point x="445" y="-6"/>
      <point x="287" y="-6" type="curve" smooth="yes"/>
      <point x="35" y="-6"/>
      <point x="6" y="33"/>
      <point x="8" y="230" type="curve" smooth="yes"/>
      <point x="14" y="728" type="line"/>
      <point x="262" y="698" type="line"/>
      <point x="256" y="231" type="line" smooth="yes"/>
      <point x="256" y="196"/>
      <point x="259" y="184"/>
      <point x="271" y="184" type="curve" smooth="yes"/>
      <point x="283" y="184"/>
      <point x="287" y="194"/>
      <point x="287" y="233" type="curve" smooth="yes"/>
      <point x="285" y="714" type="line"/>
      <point x="525" y="725" type="line"/>
    </contour>
  </outline>
</glyph>
<glyph name="V" format="1">
  <advance width="518"/>
  <unicode hex="0056"/>
  <outline>
    <contour>
      <point x="518" y="695" type="line"/>
      <point x="418" y="3" type="line"/>
      <point x="114" y="-9" type="line"/>
      <point x="1" y="715" type="line"/>
      <point x="227" y="736" type="line"/>
      <point x="274" y="270" type="line"/>
      <point x="315" y="726" type="line"/>
    </contour>
  </outline>
</glyph>
<glyph name="W" format="1">
  <advance width="749"/>
  <unicode hex="0057"/>
  <outline>
    <contour>
      <point x="749" y="670" type="line"/>
      <point x="659" y="-9" type="line"/>
      <point x="398" y="4" type="line"/>
      <point x="367" y="256" type="line"/>
      <point x="310" y="15" type="line"/>
      <point x="59" y="-12" type="line"/>
      <point x="1" y="709" type="line"/>
      <point x="223" y="731" type="line"/>
      <point x="247" y="356" type="line"/>
      <point x="284" y="709" type="line"/>
      <point x="472" y="718" type="line"/>
      <point x="493" y="328" type="line"/>
      <point x="551" y="734" type="line"/>
    </contour>
  </outline>
</glyph>
<glyph name="X" format="1">
  <advance width="534"/>
  <unicode hex="0058"/>
  <outline>
    <contour>
      <point x="536" y="27" type="line"/>
      <point x="303" y="-7" type="line"/>
      <point x="262" y="166" type="line"/>
      <point x="212" y="-7" type="line"/>
      <point x="-4" y="18" type="line"/>
      <point x="89" y="378" type="line"/>
      <point x="-6" y="688" type="line"/>
      <point x="236" y="727" type="line"/>
      <point x="267" y="536" type="line"/>
      <point x="323" y="727" type="line"/>
      <point x="533" y="700" type="line"/>
      <point x="451" y="371" type="line"/>
    </contour>
  </outline>
</glyph>
<glyph name="Y" format="1">
  <advance width="544"/>
  <unicode hex="0059"/>
  <outline>
    <contour>
      <point x="552" y="695" type="line"/>
      <point x="388" y="283" type="line"/>
      <point x="377" y="-23" type="line"/>
      <point x="127" y="20" type="line"/>
      <point x="143" y="238" type="line"/>
      <point x="-8" y="671" type="line"/>
      <point x="211" y="733" type="line"/>
      <point x="275" y="495" type="line"/>
      <point x="330" y="725" type="line"/>
    </contour>
  </outline>
</glyph>
<glyph name="Z" format="1">
  <advance width="481"/>
  <unicode hex="005A"/>
  <outline>
    <contour>
      <point x="475" y="511" type="line"/>
      <point x="289" y="220" type="line"/>
      <point x="461" y="238" type="line"/>
      <point x="471" y="9" type="line"/>
      <point x="29" y="-9" type="line"/>
      <point x="7" y="195" type="line"/>
      <point x="177" y="516" type="line"/>
      <point x="7" y="500" type="line"/>
      <point x="11" y="725" type="line"/>
      <point x="469" y="702" type="line"/>
    </contour>
  </outline>
</glyph>
<glyph name="bracketleft" format="1">
  <advance width="302"/>
  <unicode hex="005B"/>
  <outline>
    <contour>
      <point x="299" y="139" type="line"/>
      <point x="286" y="-34" type="line"/>
      <point x="14" y="0" type="line"/>
      <point x="12" y="702" type="line"/>
      <point x="284" y="731" type="line"/>
      <point x="292" y="559" type="line"/>
      <point x="208" y="538" type="line"/>
      <point x="205" y="148" type="line"/>
    </contour>
  </outline>
</glyph>
<glyph name="backslash" format="1">
  <advance width="313"/>
  <unicode hex="005C"/>
  <outline>
    <contour>
      <point x="313" y="-16" type="line"/>
      <point x="105" y="8" type="line"/>
      <point x="0" y="662" type="line"/>
      <point x="218" y="734" type="line"/>
    </contour>
  </outline>
</glyph>
<glyph name="bracketright" format="1">
  <advance width="302"/>
  <unicode hex="005D"/>
  <outline>
    <contour>
      <point x="290" y="-9" type="line"/>
      <point x="3" y="11" type="line"/>
      <point x="13" y="168" type="line"/>
      <point x="98" y="164" type="line"/>
      <point x="90" y="542" type="line"/>
      <point x="8" y="547" type="line"/>
      <point x="3" y="706" type="line"/>
      <point x="287" y="724" type="line"/>
    </contour>
  </outline>
</glyph>
<glyph name="asciicircum" format="1">
  <advance width="405"/>
  <unicode hex="005E"/>
  <outline>
    <contour>
      <point x="393" y="116" type="line"/>
      <point x="211" y="299" type="line"/>
      <point x="3" y="141" type="line"/>
      <point x="16" y="414" type="line"/>
      <point x="191" y="612" type="line"/>
      <point x="380" y="427" type="line"/>
    </contour>
  </outline>
</glyph>
<glyph name="underscore" format="1">
  <advance width="324"/>
  <unicode hex="005F"/>
  <outline>
    <contour>
      <point x="324" y="-162" type="line"/>
      <point x="0" y="-162" type="line"/>
      <point x="0" y="-27" type="line"/>
      <point x="324" y="-27" type="line"/>
    </contour>
  </outline>
</glyph>
<glyph name="grave" format="1">
  <advance width="324"/>
  <unicode hex="0060"/>
  <outline>
    <contour>
      <point x="286" y="695" type="line"/>
      <point x="253" y="569" type="line"/>
      <point x="44" y="625" type="line"/>
      <point x="82" y="788" type="line"/>
    </contour>
  </outline>
</glyph>
<glyph name="a" format="1">
  <advance width="435"/>
  <unicode hex="0061"/>
  <outline>
    <contour>
      <point x="428" y="389" type="curve" smooth="yes"/>
      <point x="421" y="13" type="line"/>
      <point x="244" y="-22" type="line"/>
      <point x="242" y="33" type="line"/>
      <point x="199" y="5"/>
      <point x="154" y="-13"/>
      <point x="103" y="-13" type="curve" smooth="yes"/>
      <point x="31" y="-13"/>
      <point x="2" y="23"/>
      <point x="2" y="128" type="curve" smooth="yes"/>
      <point x="2" y="266"/>
      <point x="58" y="332"/>
      <point x="239" y="332" type="curve"/>
      <point x="241" y="355"/>
      <point x="232" y="365"/>
      <point x="206" y="365" type="curve" smooth="yes"/>
      <point x="145" y="365"/>
      <point x="108" y="354"/>
      <point x="56" y="334" type="curve"/>
      <point x="32" y="508" type="line"/>
      <point x="82" y="531"/>
      <point x="150" y="551"/>
      <point x="229" y="551" type="curve" smooth="yes"/>
      <point x="373" y="551"/>
      <point x="431" y="531"/>
    </contour>
    <contour>
      <point x="241" y="171" type="curve"/>
      <point x="240" y="201" type="line"/>
      <point x="184" y="201"/>
      <point x="173" y="188"/>
      <point x="173" y="167" type="curve" smooth="yes"/>
      <point x="173" y="157"/>
      <point x="178" y="151"/>
      <point x="193" y="151" type="curve" smooth="yes"/>
      <point x="206" y="151"/>
      <point x="226" y="157"/>
    </contour>
  </outline>
</glyph>
<glyph name="c" format="1">
  <advance width="403"/>
  <unicode hex="0063"/>
  <outline>
    <contour>
      <point x="402" y="521" type="curve"/>
      <point x="382" y="321" type="line"/>
      <point x="351" y="339"/>
      <point x="324" y="347"/>
      <point x="295" y="347" type="curve" smooth="yes"/>
      <point x="257" y="347"/>
      <point x="247" y="312"/>
      <point x="247" y="264" type="curve" smooth="yes"/>
      <point x="247" y="212"/>
      <point x="255" y="177"/>
      <point x="306" y="177" type="curve" smooth="yes"/>
      <point x="337" y="177"/>
      <point x="350" y="180"/>
      <point x="376" y="187" type="curve"/>
      <point x="396" y="18" type="line"/>
      <point x="344" y="2"/>
      <point x="304" y="-8"/>
      <point x="219" y="-8" type="curve" smooth="yes"/>
      <point x="32" y="-8"/>
      <point x="5" y="76"/>
      <point x="5" y="282" type="curve" smooth="yes"/>
      <point x="5" y="486"/>
      <point x="38" y="553"/>
      <point x="215" y="553" type="curve" smooth="yes"/>
      <point x="299" y="553"/>
      <point x="345" y="544"/>
    </contour>
  </outline>
</glyph>
<glyph name="d" format="1">
  <advance width="486"/>
  <unicode hex="0064"/>
  <outline>
    <contour>
      <point x="479" y="734" type="line"/>
      <point x="472" y="18" type="line"/>
      <point x="262" y="-14" type="line"/>
      <point x="263" y="49" type="line"/>
      <point x="227" y="13"/>
      <point x="189" y="-2"/>
      <point x="128" y="-2" type="curve" smooth="yes"/>
      <point x="37" y="-2"/>
      <point x="6" y="62"/>
      <point x="6" y="257" type="curve" smooth="yes"/>
      <point x="6" y="492"/>
      <point x="47" y="554"/>
      <point x="139" y="554" type="curve" smooth="yes"/>
      <point x="207" y="554"/>
      <point x="237" y="540"/>
      <point x="271" y="515" type="curve"/>
      <point x="262" y="698" type="line"/>
    </contour>
    <contour>
      <point x="263" y="255" type="curve" smooth="yes"/>
      <point x="263" y="350"/>
      <point x="262" y="359"/>
      <point x="246" y="359" type="curve" smooth="yes"/>
      <point x="236" y="359"/>
      <point x="232" y="346"/>
      <point x="232" y="293" type="curve" smooth="yes"/>
      <point x="232" y="187"/>
      <point x="236" y="173"/>
      <point x="250" y="173" type="curve" smooth="yes"/>
      <point x="259" y="173"/>
      <point x="263" y="184"/>
    </contour>
  </outline>
</glyph>
<glyph name="e" format="1">
  <advance width="428"/>
  <unicode hex="0065"/>
  <outline>
    <contour>
      <point x="424" y="36" type="line"/>
      <point x="354" y="5"/>
      <point x="288" y="-5"/>
      <point x="198" y="-5" type="curve" smooth="yes"/>
      <point x="60" y="-5"/>
      <point x="5" y="41"/>
      <point x="5" y="245" type="curve" smooth="yes"/>
      <point x="5" y="502"/>
      <point x="54" y="551"/>
      <point x="241" y="551" type="curve" smooth="yes"/>
      <point x="372" y="551"/>
      <point x="415" y="479"/>
      <point x="420" y="327" type="curve" smooth="yes"/>
      <point x="423" y="228" type="line"/>
      <point x="206" y="177" type="line"/>
      <point x="216" y="162"/>
      <point x="233" y="157"/>
      <point x="263" y="157" type="curve" smooth="yes"/>
      <point x="303" y="157"/>
      <point x="357" y="166"/>
      <point x="410" y="185" type="curve"/>
    </contour>
    <contour>
      <point x="236" y="323" type="line"/>
      <point x="233" y="379"/>
      <point x="231" y="393"/>
      <point x="215" y="393" type="curve" smooth="yes"/>
      <point x="198" y="393"/>
      <point x="195" y="379"/>
      <point x="195" y="311" type="curve"/>
    </contour>
  </outline>
</glyph>
<glyph name="f" format="1">
  <advance width="394"/>
  <unicode hex="0066"/>
  <outline>
    <contour>
      <point x="401" y="698" type="curve"/>
      <point x="395" y="489" type="line"/>
      <point x="368" y="505"/>
      <point x="356" y="509"/>
      <point x="329" y="509" type="curve" smooth="yes"/>
      <point x="302" y="509"/>
      <point x="292" y="494"/>
      <point x="293" y="453" type="curve" smooth="yes"/>
      <point x="295" y="394" type="line"/>
      <point x="380" y="388" type="line"/>
      <point x="383" y="179" type="line"/>
      <point x="297" y="188" type="line"/>
      <point x="300" y="5" type="line"/>
      <point x="64" y="-13" type="line"/>
      <point x="59" y="216" type="line"/>
      <point x="4" y="218" type="line"/>
      <point x="7" y="399" type="line"/>
      <point x="55" y="395" type="line"/>
      <point x="52" y="468" type="line" smooth="yes"/>
      <point x="44" y="662"/>
      <point x="92" y="729"/>
      <point x="244" y="729" type="curve" smooth="yes"/>
      <point x="313" y="729"/>
      <point x="354" y="720"/>
    </contour>
  </outline>
</glyph>
<glyph name="g" format="1">
  <advance width="486"/>
  <unicode hex="0067"/>
  <outline>
    <contour>
      <point x="482" y="564" type="line"/>
      <point x="476" y="130" type="line" smooth="yes"/>
      <point x="473" y="-65"/>
      <point x="445" y="-91"/>
      <point x="168" y="-133" type="curve"/>
      <point x="130" y="25" type="line"/>
      <point x="264" y="50"/>
      <point x="277" y="58"/>
      <point x="279" y="99" type="curve"/>
      <point x="252" y="77"/>
      <point x="206" y="65"/>
      <point x="155" y="65" type="curve" smooth="yes"/>
      <point x="45" y="65"/>
      <point x="5" y="106"/>
      <point x="5" y="291" type="curve" smooth="yes"/>
      <point x="5" y="484"/>
      <point x="36" y="553"/>
      <point x="146" y="553" type="curve" smooth="yes"/>
      <point x="203" y="553"/>
      <point x="243" y="537"/>
      <point x="279" y="504" type="curve"/>
      <point x="276" y="548" type="line"/>
    </contour>
    <contour>
      <point x="263" y="287" type="curve" smooth="yes"/>
      <point x="263" y="367"/>
      <point x="259" y="373"/>
      <point x="247" y="373" type="curve" smooth="yes"/>
      <point x="231" y="373"/>
      <point x="231" y="363"/>
      <point x="231" y="293" type="curve" smooth="yes"/>
      <point x="231" y="224"/>
      <point x="233" y="211"/>
      <point x="248" y="211" type="curve" smooth="yes"/>
      <point x="260" y="211"/>
      <point x="263" y="222"/>
    </contour>
  </outline>
</glyph>
<glyph name="h" format="1">
  <advance width="497"/>
  <unicode hex="0068"/>
  <outline>
    <contour>
      <point x="489" y="361" type="curve" smooth="yes"/>
      <point x="476" y="-2" type="line"/>
      <point x="266" y="22" type="line"/>
      <point x="270" y="292" type="line" smooth="yes"/>
      <point x="271" y="333"/>
      <point x="263" y="347"/>
      <point x="248" y="347" type="curve"/>
      <point x="245" y="-6" type="line"/>
      <point x="19" y="-14" type="line"/>
      <point x="7" y="721" type="line"/>
      <point x="235" y="727" type="line"/>
      <point x="236" y="522" type="line"/>
      <point x="278" y="537"/>
      <point x="326" y="548"/>
      <point x="380" y="548" type="curve" smooth="yes"/>
      <point x="457" y="548"/>
      <point x="494" y="493"/>
    </contour>
  </outline>
</glyph>
<glyph name="i" format="1">
  <advance width="254"/>
  <unicode hex="0069"/>
  <outline>
    <contour>
      <point x="245" y="526" type="line"/>
      <point x="11" y="536" type="line"/>
      <point x="4" y="708" type="line"/>
      <point x="241" y="728" type="line"/>
    </contour>
    <contour>
      <point x="245" y="493" type="line"/>
      <point x="230" y="-6" type="line"/>
      <point x="15" y="7" type="line"/>
      <point x="8" y="518" type="line"/>
    </contour>
  </outline>
</glyph>
<glyph name="j" format="1">
  <advance width="251"/>
  <unicode hex="006A"/>
  <outline>
    <contour>
      <point x="240" y="698" type="line"/>
      <point x="238" y="554" type="line"/>
      <point x="13" y="547" type="line"/>
      <point x="12" y="725" type="line"/>
    </contour>
    <contour>
      <point x="237" y="238" type="line" smooth="yes"/>
      <point x="240" y="25"/>
      <point x="218" y="-69"/>
      <point x="184" y="-143" type="curve"/>
      <point x="-7" y="-120" type="line"/>
      <point x="10" y="-39"/>
      <point x="18" y="61"/>
      <point x="16" y="205" type="curve" smooth="yes"/>
      <point x="12" y="518" type="line"/>
      <point x="233" y="526" type="line"/>
    </contour>
  </outline>
</glyph>
<glyph name="k" format="1">
  <advance width="502"/>
  <unicode hex="006B"/>
  <outline>
    <contour>
      <point x="501" y="13" type="line"/>
      <point x="289" y="-7" type="line"/>
      <point x="249" y="147" type="line"/>
      <point x="240" y="126" type="line"/>
      <point x="246" y="-21" type="line"/>
      <point x="13" y="11" type="line"/>
      <point x="8" y="724" type="line"/>
      <point x="238" y="711" type="line"/>
      <point x="231" y="342" type="line"/>
      <point x="278" y="551" type="line"/>
      <point x="500" y="547" type="line"/>
      <point x="429" y="340" type="line"/>
    </contour>
  </outline>
</glyph>
<glyph name="l" format="1">
  <advance width="251"/>
  <unicode hex="006C"/>
  <outline>
    <contour>
      <point x="240" y="6" type="line"/>
      <point x="13" y="-4" type="line"/>
      <point x="7" y="716" type="line"/>
      <point x="233" y="729" type="line"/>
    </contour>
  </outline>
</glyph>
<glyph name="m" format="1">
  <advance width="675"/>
  <unicode hex="006D"/>
  <outline>
    <contour>
      <point x="665" y="4" type="line"/>
      <point x="464" y="-13" type="line"/>
      <point x="469" y="323" type="line" smooth="yes"/>
      <point x="469" y="355"/>
      <point x="462" y="363"/>
      <point x="445" y="356" type="curve"/>
      <point x="436" y="-2" type="line"/>
      <point x="238" y="20" type="line"/>
      <point x="239" y="271" type="line" smooth="yes"/>
      <point x="239" y="335"/>
      <point x="233" y="350"/>
      <point x="213" y="350" type="curve"/>
      <point x="218" y="4" type="line"/>
      <point x="7" y="-9" type="line"/>
      <point x="13" y="536" type="line"/>
      <point x="208" y="556" type="line"/>
      <point x="214" y="518" type="line"/>
      <point x="250" y="535"/>
      <point x="284" y="553"/>
      <point x="336" y="553" type="curve" smooth="yes"/>
      <point x="377" y="553"/>
      <point x="403" y="539"/>
      <point x="418" y="505" type="curve"/>
      <point x="452" y="536"/>
      <point x="489" y="554"/>
      <point x="556" y="554" type="curve" smooth="yes"/>
      <point x="629" y="554"/>
      <point x="665" y="509"/>
      <point x="665" y="367" type="curve" smooth="yes"/>
    </contour>
  </outline>
</glyph>
<glyph name="n" format="1">
  <advance width="486"/>
  <unicode hex="006E"/>
  <outline>
    <contour>
      <point x="478" y="-1" type="line"/>
      <point x="260" y="-12" type="line"/>
      <point x="250" y="305" type="line" smooth="yes"/>
      <point x="249" y="337"/>
      <point x="240" y="349"/>
      <point x="224" y="349" type="curve"/>
      <point x="233" y="13" type="line"/>
      <point x="8" y="7" type="line"/>
      <point x="12" y="535" type="line"/>
      <point x="229" y="554" type="line"/>
      <point x="231" y="518" type="line"/>
      <point x="280" y="542"/>
      <point x="316" y="554"/>
      <point x="368" y="554" type="curve" smooth="yes"/>
      <point x="444" y="554"/>
      <point x="473" y="510"/>
      <point x="474" y="387" type="curve" smooth="yes"/>
    </contour>
  </outline>
</glyph>
<glyph name="o" format="1">
  <advance width="445"/>
  <unicode hex="006F"/>
  <outline>
    <contour>
      <point x="440" y="252" type="curve" smooth="yes"/>
      <point x="440" y="28"/>
      <point x="399" y="-10"/>
      <point x="198" y="-10" type="curve" smooth="yes"/>
      <point x="30" y="-10"/>
      <point x="5" y="47"/>
      <point x="5" y="259" type="curve" smooth="yes"/>
      <point x="5" y="517"/>
      <point x="41" y="553"/>
      <point x="249" y="553" type="curve" smooth="yes"/>
      <point x="389" y="553"/>
      <point x="440" y="494"/>
    </contour>
    <contour>
      <point x="239" y="305" type="curve" smooth="yes"/>
      <point x="239" y="372"/>
      <point x="235" y="386"/>
      <point x="223" y="386" type="curve" smooth="yes"/>
      <point x="209" y="386"/>
      <point x="207" y="371"/>
      <point x="207" y="266" type="curve" smooth="yes"/>
      <point x="207" y="169"/>
      <point x="209" y="152"/>
      <point x="221" y="152" type="curve" smooth="yes"/>
      <point x="233" y="152"/>
      <point x="239" y="165"/>
    </contour>
  </outline>
</glyph>
<glyph name="p" format="1">
  <advance width="486"/>
  <unicode hex="0070"/>
  <outline>
    <contour>
      <point x="480" y="306" type="curve" smooth="yes"/>
      <point x="480" y="55"/>
      <point x="440" y="-5"/>
      <point x="343" y="-5" type="curve" smooth="yes"/>
      <point x="295" y="-5"/>
      <point x="260" y="11"/>
      <point x="229" y="31" type="curve"/>
      <point x="218" y="-134" type="line"/>
      <point x="5" y="-114" type="line"/>
      <point x="14" y="570" type="line"/>
      <point x="227" y="550" type="line"/>
      <point x="224" y="490" type="line"/>
      <point x="262" y="536"/>
      <point x="305" y="551"/>
      <point x="354" y="551" type="curve" smooth="yes"/>
      <point x="446" y="551"/>
      <point x="480" y="471"/>
    </contour>
    <contour>
      <point x="263" y="254" type="curve" smooth="yes"/>
      <point x="263" y="337"/>
      <point x="256" y="347"/>
      <point x="245" y="347" type="curve" smooth="yes"/>
      <point x="233" y="347"/>
      <point x="231" y="336"/>
      <point x="231" y="246" type="curve" smooth="yes"/>
      <point x="231" y="175"/>
      <point x="236" y="163"/>
      <point x="247" y="163" type="curve" smooth="yes"/>
      <point x="259" y="163"/>
      <point x="263" y="179"/>
    </contour>
  </outline>
</glyph>
<glyph name="q" format="1">
  <advance width="486"/>
  <unicode hex="0071"/>
  <outline>
    <contour>
      <point x="483" y="556" type="line"/>
      <point x="468" y="-113" type="line"/>
      <point x="257" y="-130" type="line"/>
      <point x="267" y="34" type="line"/>
      <point x="224" y="5"/>
      <point x="181" y="-9"/>
      <point x="130" y="-9" type="curve" smooth="yes"/>
      <point x="36" y="-9"/>
      <point x="6" y="64"/>
      <point x="6" y="284" type="curve" smooth="yes"/>
      <point x="6" y="475"/>
      <point x="48" y="553"/>
      <point x="145" y="553" type="curve" smooth="yes"/>
      <point x="193" y="553"/>
      <point x="232" y="536"/>
      <point x="280" y="499" type="curve"/>
      <point x="287" y="572" type="line"/>
    </contour>
    <contour>
      <point x="264" y="245" type="curve" smooth="yes"/>
      <point x="264" y="336"/>
      <point x="259" y="341"/>
      <point x="250" y="341" type="curve" smooth="yes"/>
      <point x="237" y="341"/>
      <point x="232" y="331"/>
      <point x="232" y="287" type="curve" smooth="yes"/>
      <point x="232" y="191"/>
      <point x="237" y="179"/>
      <point x="247" y="179" type="curve" smooth="yes"/>
      <point x="259" y="179"/>
      <point x="264" y="189"/>
    </contour>
  </outline>
</glyph>
<glyph name="r" format="1">
  <advance width="380"/>
  <unicode hex="0072"/>
  <outline>
    <contour>
      <point x="378" y="304" type="line"/>
      <point x="353" y="318"/>
      <point x="337" y="323"/>
      <point x="309" y="323" type="curve" smooth="yes"/>
      <point x="268" y="323"/>
      <point x="252" y="305"/>
      <point x="257" y="224" type="curve" smooth="yes"/>
      <point x="271" y="4" type="line"/>
      <point x="20" y="-15" type="line"/>
      <point x="6" y="542" type="line"/>
      <point x="213" y="553" type="line"/>
      <point x="222" y="509" type="line"/>
      <point x="252" y="540"/>
      <point x="305" y="572"/>
      <point x="374" y="574" type="curve"/>
    </contour>
  </outline>
</glyph>
<glyph name="s" format="1">
  <advance width="403"/>
  <unicode hex="0073"/>
  <outline>
    <contour>
      <point x="400" y="519" type="curve"/>
      <point x="376" y="339" type="line"/>
      <point x="328" y="360"/>
      <point x="272" y="374"/>
      <point x="223" y="374" type="curve" smooth="yes"/>
      <point x="197" y="374"/>
      <point x="191" y="371"/>
      <point x="191" y="364" type="curve" smooth="yes"/>
      <point x="191" y="357"/>
      <point x="197" y="356"/>
      <point x="240" y="346" type="curve" smooth="yes"/>
      <point x="367" y="317"/>
      <point x="391" y="288"/>
      <point x="391" y="166" type="curve" smooth="yes"/>
      <point x="391" y="30"/>
      <point x="345" y="-6"/>
      <point x="197" y="-6" type="curve" smooth="yes"/>
      <point x="134" y="-6"/>
      <point x="52" y="7"/>
      <point x="5" y="32" type="curve"/>
      <point x="14" y="187" type="line"/>
      <point x="65" y="165"/>
      <point x="140" y="146"/>
      <point x="193" y="146" type="curve" smooth="yes"/>
      <point x="203" y="146"/>
      <point x="207" y="150"/>
      <point x="207" y="156" type="curve" smooth="yes"/>
      <point x="207" y="165"/>
      <point x="201" y="168"/>
      <point x="178" y="173" type="curve" smooth="yes"/>
      <point x="41" y="206"/>
      <point x="10" y="245"/>
      <point x="10" y="374" type="curve" smooth="yes"/>
      <point x="10" y="513"/>
      <point x="52" y="551"/>
      <point x="212" y="551" type="curve" smooth="yes"/>
      <point x="299" y="551"/>
      <point x="350" y="539"/>
    </contour>
  </outline>
</glyph>
<glyph name="t" format="1">
  <advance width="383"/>
  <unicode hex="0074"/>
  <outline>
    <contour>
      <point x="379" y="26" type="line"/>
      <point x="327" y="1"/>
      <point x="276" y="-11"/>
      <point x="197" y="-11" type="curve" smooth="yes"/>
      <point x="80" y="-11"/>
      <point x="51" y="31"/>
      <point x="49" y="176" type="curve" smooth="yes"/>
      <point x="47" y="348" type="line"/>
      <point x="3" y="353" type="line"/>
      <point x="3" y="514" type="line"/>
      <point x="54" y="517" type="line"/>
      <point x="50" y="695" type="line"/>
      <point x="272" y="734" type="line"/>
      <point x="277" y="536" type="line"/>
      <point x="371" y="547" type="line"/>
      <point x="376" y="362" type="line"/>
      <point x="281" y="357" type="line"/>
      <point x="283" y="255" type="line" smooth="yes"/>
      <point x="284" y="199"/>
      <point x="292" y="185"/>
      <point x="317" y="185" type="curve" smooth="yes"/>
      <point x="338" y="185"/>
      <point x="352" y="189"/>
      <point x="374" y="199" type="curve"/>
    </contour>
  </outline>
</glyph>
<glyph name="u" format="1">
  <advance width="486"/>
  <unicode hex="0075"/>
  <outline>
    <contour>
      <point x="478" y="531" type="line"/>
      <point x="474" y="13" type="line"/>
      <point x="254" y="-20" type="line"/>
      <point x="253" y="47" type="line"/>
      <point x="206" y="5"/>
      <point x="173" y="-8"/>
      <point x="118" y="-8" type="curve" smooth="yes"/>
      <point x="34" y="-8"/>
      <point x="8" y="25"/>
      <point x="8" y="147" type="curve" smooth="yes"/>
      <point x="9" y="534" type="line"/>
      <point x="243" y="544" type="line"/>
      <point x="232" y="229" type="line" smooth="yes"/>
      <point x="231" y="200"/>
      <point x="237" y="187"/>
      <point x="254" y="187" type="curve"/>
      <point x="267" y="560" type="line"/>
    </contour>
  </outline>
</glyph>
<glyph name="v" format="1">
  <advance width="510"/>
  <unicode hex="0076"/>
  <outline>
    <contour>
      <point x="509" y="528" type="line"/>
      <point x="410" y="2" type="line"/>
      <point x="112" y="-7" type="line"/>
      <point x="1" y="544" type="line"/>
      <point x="224" y="560" type="line"/>
      <point x="269" y="225" type="line"/>
      <point x="310" y="552" type="line"/>
    </contour>
  </outline>
</glyph>
<glyph name="w" format="1">
  <advance width="639"/>
  <unicode hex="0077"/>
  <outline>
    <contour>
      <point x="638" y="539" type="line"/>
      <point x="567" y="-9" type="line"/>
      <point x="353" y="12" type="line"/>
      <point x="313" y="194" type="line"/>
      <point x="278" y="3" type="line"/>
      <point x="55" y="-7" type="line"/>
      <point x="1" y="510" type="line"/>
      <point x="170" y="558" type="line"/>
      <point x="208" y="249" type="line"/>
      <point x="238" y="545" type="line"/>
      <point x="397" y="539" type="line"/>
      <point x="418" y="271" type="line"/>
      <point x="451" y="555" type="line"/>
    </contour>
  </outline>
</glyph>
<glyph name="x" format="1">
  <advance width="481"/>
  <unicode hex="0078"/>
  <outline>
    <contour>
      <point x="485" y="21" type="line"/>
      <point x="273" y="-5" type="line"/>
      <point x="235" y="126" type="line"/>
      <point x="190" y="-5" type="line"/>
      <point x="-7" y="13" type="line"/>
      <point x="78" y="287" type="line"/>
      <point x="-9" y="523" type="line"/>
      <point x="211" y="553" type="line"/>
      <point x="241" y="408" type="line"/>
      <point x="292" y="553" type="line"/>
      <point x="482" y="532" type="line"/>
      <point x="408" y="282" type="line"/>
    </contour>
  </outline>
</glyph>
<glyph name="y" format="1">
  <advance width="495"/>
  <unicode hex="0079"/>
  <outline>
    <contour>
      <point x="501" y="498" type="line"/>
      <point x="287" y="-144" type="line"/>
      <point x="78" y="-103" type="line"/>
      <point x="142" y="42" type="line"/>
      <point x="-8" y="492" type="line"/>
      <point x="188" y="569" type="line"/>
      <point x="242" y="340" type="line"/>
      <point x="289" y="568" type="line"/>
    </contour>
  </outline>
</glyph>
<glyph name="z" format="1">
  <advance width="416"/>
  <unicode hex="007A"/>
  <outline>
    <contour>
      <point x="413" y="376" type="line"/>
      <point x="268" y="179" type="line"/>
      <point x="401" y="170" type="line"/>
      <point x="409" y="7" type="line"/>
      <point x="22" y="-7" type="line"/>
      <point x="5" y="160" type="line"/>
      <point x="137" y="380" type="line"/>
      <point x="5" y="368" type="line"/>
      <point x="8" y="552" type="line"/>
      <point x="407" y="534" type="line"/>
    </contour>
  </outline>
</glyph>
<glyph name="braceleft" format="1">
  <advance width="332"/>
  <unicode hex="007B"/>
  <outline>
    <contour>
      <point x="329" y="565" type="line"/>
      <point x="254" y="555"/>
      <point x="240" y="542"/>
      <point x="240" y="506" type="curve" smooth="yes"/>
      <point x="240" y="482"/>
      <point x="249" y="409"/>
      <point x="257" y="377" type="curve"/>
      <point x="184" y="333" type="line"/>
      <point x="254" y="303" type="line"/>
      <point x="251" y="271"/>
      <point x="248" y="214"/>
      <point x="248" y="194" type="curve" smooth="yes"/>
      <point x="248" y="165"/>
      <point x="257" y="153"/>
      <point x="328" y="145" type="curve"/>
      <point x="318" y="-18" type="line"/>
      <point x="90" y="-14"/>
      <point x="61" y="13"/>
      <point x="61" y="76" type="curve" smooth="yes"/>
      <point x="61" y="119"/>
      <point x="71" y="187"/>
      <point x="86" y="243" type="curve"/>
      <point x="4" y="271" type="line"/>
      <point x="8" y="409" type="line"/>
      <point x="80" y="427" type="line"/>
      <point x="62" y="485"/>
      <point x="54" y="555"/>
      <point x="54" y="600" type="curve" smooth="yes"/>
      <point x="54" y="672"/>
      <point x="79" y="724"/>
      <point x="320" y="732" type="curve"/>
    </contour>
  </outline>
</glyph>
<glyph name="bar" format="1">
  <advance width="238"/>
  <unicode hex="007C"/>
  <outline>
    <contour>
      <point x="226" y="3" type="line"/>
      <point x="15" y="-22" type="line"/>
      <point x="8" y="721" type="line"/>
      <point x="224" y="733" type="line"/>
    </contour>
  </outline>
</glyph>
<glyph name="braceright" format="1">
  <advance width="332"/>
  <unicode hex="007D"/>
  <outline>
    <contour>
      <point x="328" y="270" type="line"/>
      <point x="253" y="241" type="line"/>
      <point x="267" y="201"/>
      <point x="274" y="149"/>
      <point x="274" y="112" type="curve" smooth="yes"/>
      <point x="274" y="23"/>
      <point x="248" y="-6"/>
      <point x="16" y="-18" type="curve"/>
      <point x="5" y="141" type="line"/>
      <point x="77" y="153"/>
      <point x="86" y="172"/>
      <point x="86" y="208" type="curve" smooth="yes"/>
      <point x="86" y="229"/>
      <point x="82" y="282"/>
      <point x="74" y="306" type="curve"/>
      <point x="146" y="333" type="line"/>
      <point x="77" y="378" type="line"/>
      <point x="85" y="410"/>
      <point x="92" y="480"/>
      <point x="92" y="512" type="curve" smooth="yes"/>
      <point x="92" y="562"/>
      <point x="68" y="569"/>
      <point x="2" y="572" type="curve"/>
      <point x="20" y="733" type="line"/>
      <point x="194" y="734"/>
      <point x="278" y="709"/>
      <point x="278" y="608" type="curve" smooth="yes"/>
      <point x="278" y="553"/>
      <point x="268" y="481"/>
      <point x="257" y="428" type="curve"/>
      <point x="325" y="381" type="line"/>
    </contour>
  </outline>
</glyph>
<glyph name="asciitilde" format="1">
  <advance width="470"/>
  <unicode hex="007E"/>
  <outline>
    <contour>
      <point x="469" y="331" type="line"/>
      <point x="335" y="173" type="line"/>
      <point x="157" y="252" type="line"/>
      <point x="38" y="167" type="line"/>
      <point x="1" y="405" type="line"/>
      <point x="165" y="548" type="line"/>
      <point x="298" y="464" type="line"/>
      <point x="414" y="551" type="line"/>
    </contour>
  </outline>
</glyph>
<glyph name="cent" format="1">
  <advance width="385"/>
  <unicode hex="00A2"/>
  <outline>
    <contour>
      <point x="378" y="623" type="curve"/>
      <point x="360" y="423" type="line"/>
      <point x="328" y="445"/>
      <point x="309" y="451"/>
      <point x="280" y="451" type="curve" smooth="yes"/>
      <point x="247" y="451"/>
      <point x="236" y="425"/>
      <point x="236" y="353" type="curve" smooth="yes"/>
      <point x="236" y="268"/>
      <point x="248" y="251"/>
      <point x="280" y="251" type="curve" smooth="yes"/>
      <point x="311" y="251"/>
      <point x="329" y="254"/>
      <point x="354" y="263" type="curve"/>
      <point x="373" y="85" type="line"/>
      <point x="340" y="74"/>
      <point x="310" y="66"/>
      <point x="270" y="61" type="curve"/>
      <point x="257" y="-13" type="line"/>
      <point x="134" y="0" type="line"/>
      <point x="136" y="64" type="line"/>
      <point x="16" y="86"/>
      <point x="4" y="180"/>
      <point x="4" y="368" type="curve" smooth="yes"/>
      <point x="4" y="553"/>
      <point x="16" y="632"/>
      <point x="129" y="651" type="curve"/>
      <point x="133" y="718" type="line"/>
      <point x="260" y="738" type="line"/>
      <point x="266" y="653" type="line"/>
      <point x="312" y="649"/>
      <point x="341" y="640"/>
    </contour>
  </outline>
</glyph>
<glyph name="sterling" format="1">
  <advance width="502"/>
  <unicode hex="00A3"/>
  <outline>
    <contour>
      <point x="494" y="680" type="curve"/>
      <point x="473" y="481" type="line"/>
      <point x="415" y="503"/>
      <point x="381" y="510"/>
      <point x="334" y="510" type="curve" smooth="yes"/>
      <point x="281" y="510"/>
      <point x="269" y="493"/>
      <point x="274" y="439" type="curve"/>
      <point x="392" y="442" type="line"/>
      <point x="377" y="251" type="line"/>
      <point x="279" y="259" type="line"/>
      <point x="281" y="245"/>
      <point x="290" y="204"/>
      <point x="293" y="190" type="curve"/>
      <point x="488" y="217" type="line"/>
      <point x="466" y="9" type="line"/>
      <point x="15" y="-5" type="line"/>
      <point x="4" y="154" type="line"/>
      <point x="73" y="162" type="line"/>
      <point x="69" y="189"/>
      <point x="60" y="246"/>
      <point x="56" y="275" type="curve"/>
      <point x="1" y="280" type="line"/>
      <point x="5" y="433" type="line"/>
      <point x="47" y="434" type="line"/>
      <point x="47" y="458"/>
      <point x="46" y="514"/>
      <point x="46" y="541" type="curve" smooth="yes"/>
      <point x="46" y="662"/>
      <point x="120" y="724"/>
      <point x="230" y="724" type="curve" smooth="yes"/>
      <point x="333" y="724"/>
      <point x="402" y="713"/>
    </contour>
  </outline>
</glyph>
<glyph name="yen" format="1">
  <advance width="562"/>
  <unicode hex="00A5"/>
  <outline>
    <contour>
      <point x="561" y="695" type="line"/>
      <point x="421" y="341" type="line"/>
      <point x="527" y="347" type="line"/>
      <point x="513" y="146" type="line"/>
      <point x="391" y="143" type="line"/>
      <point x="386" y="-19" type="line"/>
      <point x="136" y="15" type="line"/>
      <point x="142" y="139" type="line"/>
      <point x="34" y="137" type="line"/>
      <point x="23" y="317" type="line"/>
      <point x="122" y="323" type="line"/>
      <point x="1" y="671" type="line"/>
      <point x="220" y="733" type="line"/>
      <point x="284" y="495" type="line"/>
      <point x="339" y="725" type="line"/>
    </contour>
  </outline>
</glyph>
<glyph name="section" format="1">
  <advance width="464"/>
  <unicode hex="00A7"/>
  <outline>
    <contour>
      <point x="463" y="683" type="curve"/>
      <point x="437" y="523" type="line"/>
      <point x="376" y="544"/>
      <point x="331" y="555"/>
      <point x="271" y="555" type="curve" smooth="yes"/>
      <point x="225" y="555"/>
      <point x="213" y="550"/>
      <point x="213" y="536" type="curve" smooth="yes"/>
      <point x="213" y="529"/>
      <point x="214" y="523"/>
      <point x="221" y="515" type="curve"/>
      <point x="254" y="519"/>
      <point x="289" y="522"/>
      <point x="328" y="522" type="curve" smooth="yes"/>
      <point x="401" y="522"/>
      <point x="451" y="492"/>
      <point x="451" y="371" type="curve" smooth="yes"/>
      <point x="451" y="320"/>
      <point x="441" y="284"/>
      <point x="418" y="258" type="curve"/>
      <point x="443" y="227"/>
      <point x="458" y="193"/>
      <point x="458" y="139" type="curve" smooth="yes"/>
      <point x="458" y="33"/>
      <point x="413" y="-4"/>
      <point x="248" y="-4" type="curve" smooth="yes"/>
      <point x="133" y="-4"/>
      <point x="63" y="14"/>
      <point x="2" y="39" type="curve"/>
      <point x="12" y="206" type="line"/>
      <point x="79" y="175"/>
      <point x="148" y="166"/>
      <point x="208" y="166" type="curve" smooth="yes"/>
      <point x="239" y="166"/>
      <point x="251" y="171"/>
      <point x="251" y="185" type="curve" smooth="yes"/>
      <point x="251" y="190"/>
      <point x="250" y="195"/>
      <point x="246" y="201" type="curve"/>
      <point x="218" y="199"/>
      <point x="186" y="198"/>
      <point x="151" y="198" type="curve" smooth="yes"/>
      <point x="46" y="198"/>
      <point x="9" y="237"/>
      <point x="9" y="343" type="curve" smooth="yes"/>
      <point x="9" y="385"/>
      <point x="26" y="421"/>
      <point x="58" y="449" type="curve"/>
      <point x="21" y="486"/>
      <point x="7" y="521"/>
      <point x="7" y="583" type="curve" smooth="yes"/>
      <point x="7" y="679"/>
      <point x="43" y="724"/>
      <point x="229" y="724" type="curve" smooth="yes"/>
      <point x="330" y="724"/>
      <point x="403" y="709"/>
    </contour>
  </outline>
</glyph>
<glyph name="dieresis" format="1">
  <advance width="324"/>
  <unicode hex="00A8"/>
  <outline>
    <contour>
      <point x="321" y="739" type="line"/>
      <point x="314" y="566" type="line"/>
      <point x="179" y="575" type="line"/>
      <point x="171" y="745" type="line"/>
    </contour>
    <contour>
      <point x="159" y="570" type="line"/>
      <point x="7" y="572" type="line"/>
      <point x="4" y="715" type="line"/>
      <point x="158" y="726" type="line"/>
    </contour>
  </outline>
</glyph>
<glyph name="copyright" format="1">
  <advance width="540"/>
  <unicode hex="00A9"/>
  <outline>
    <contour>
      <point x="533" y="331" type="curve" smooth="yes"/>
      <point x="533" y="80"/>
      <point x="461" y="-13"/>
      <point x="239" y="-13" type="curve" smooth="yes"/>
      <point x="64" y="-13"/>
      <point x="5" y="84"/>
      <point x="5" y="341" type="curve" smooth="yes"/>
      <point x="5" y="660"/>
      <point x="65" y="727"/>
      <point x="302" y="727" type="curve" smooth="yes"/>
      <point x="456" y="727"/>
      <point x="533" y="628"/>
    </contour>
    <contour>
      <point x="456" y="329" type="curve" smooth="yes"/>
      <point x="456" y="576"/>
      <point x="415" y="645"/>
      <point x="301" y="645" type="curve" smooth="yes"/>
      <point x="105" y="645"/>
      <point x="89" y="605"/>
      <point x="89" y="340" type="curve" smooth="yes"/>
      <point x="89" y="122"/>
      <point x="110" y="68"/>
      <point x="239" y="68" type="curve" smooth="yes"/>
      <point x="423" y="68"/>
      <point x="456" y="108"/>
    </contour>
    <contour>
      <point x="401" y="541" type="curve"/>
      <point x="388" y="381" type="line"/>
      <point x="358" y="396"/>
      <point x="340" y="400"/>
      <point x="313" y="400" type="curve" smooth="yes"/>
      <point x="288" y="400"/>
      <point x="281" y="386"/>
      <point x="281" y="349" type="curve" smooth="yes"/>
      <point x="281" y="312"/>
      <point x="291" y="296"/>
      <point x="328" y="296" type="curve" smooth="yes"/>
      <point x="352" y="296"/>
      <point x="364" y="298"/>
      <point x="384" y="304" type="curve"/>
      <point x="397" y="167" type="line"/>
      <point x="361" y="154"/>
      <point x="334" y="147"/>
      <point x="275" y="147" type="curve" smooth="yes"/>
      <point x="147" y="147"/>
      <point x="128" y="211"/>
      <point x="128" y="362" type="curve" smooth="yes"/>
      <point x="128" y="515"/>
      <point x="151" y="564"/>
      <point x="273" y="564" type="curve" smooth="yes"/>
      <point x="331" y="564"/>
      <point x="363" y="558"/>
    </contour>
  </outline>
</glyph>
<glyph name="ordfeminine" format="1">
  <advance width="359"/>
  <unicode hex="00AA"/>
  <outline>
    <contour>
      <point x="348" y="595" type="curve" smooth="yes"/>
      <point x="342" y="294" type="line"/>
      <point x="202" y="266" type="line"/>
      <point x="199" y="310" type="line"/>
      <point x="164" y="288"/>
      <point x="128" y="274"/>
      <point x="88" y="274" type="curve" smooth="yes"/>
      <point x="31" y="274"/>
      <point x="7" y="302"/>
      <point x="7" y="386" type="curve" smooth="yes"/>
      <point x="7" y="497"/>
      <point x="52" y="542"/>
      <point x="197" y="542" type="curve"/>
      <point x="198" y="560"/>
      <point x="191" y="568"/>
      <point x="171" y="568" type="curve" smooth="yes"/>
      <point x="121" y="568"/>
      <point x="92" y="559"/>
      <point x="50" y="543" type="curve"/>
      <point x="31" y="690" type="line"/>
      <point x="76" y="711"/>
      <point x="122" y="724"/>
      <point x="188" y="724" type="curve" smooth="yes"/>
      <point x="305" y="724"/>
      <point x="350" y="708"/>
    </contour>
    <contour>
      <point x="343" y="240" type="line"/>
      <point x="326" y="112" type="line"/>
      <point x="16" y="113" type="line"/>
      <point x="20" y="256" type="line"/>
    </contour>
    <contour>
      <point x="199" y="420" type="curve"/>
      <point x="197" y="445" type="line"/>
      <point x="152" y="445"/>
      <point x="143" y="435"/>
      <point x="143" y="418" type="curve" smooth="yes"/>
      <point x="143" y="409"/>
      <point x="148" y="405"/>
      <point x="160" y="405" type="curve" smooth="yes"/>
      <point x="171" y="405"/>
      <point x="187" y="409"/>
    </contour>
  </outline>
</glyph>
<glyph name="guillemotleft" format="1">
  <advance width="513"/>
  <unicode hex="00AB"/>
  <outline>
    <contour>
      <point x="273" y="29" type="line"/>
      <point x="104" y="-16" type="line"/>
      <point x="2" y="223" type="line"/>
      <point x="105" y="603" type="line"/>
      <point x="265" y="520" type="line"/>
      <point x="198" y="256" type="line"/>
    </contour>
    <contour>
      <point x="508" y="-22" type="line"/>
      <point x="300" y="0" type="line"/>
      <point x="221" y="288" type="line"/>
      <point x="308" y="553" type="line"/>
      <point x="493" y="574" type="line"/>
      <point x="430" y="256" type="line"/>
    </contour>
  </outline>
</glyph>
<glyph name="macron" format="1">
  <advance width="324"/>
  <unicode hex="00AF"/>
  <unicode hex="02C9"/>
  <outline>
    <contour>
      <point x="305" y="586" type="line"/>
      <point x="22" y="562" type="line"/>
      <point x="19" y="718" type="line"/>
      <point x="302" y="729" type="line"/>
    </contour>
  </outline>
</glyph>
<glyph name="degree" format="1">
  <advance width="352"/>
  <unicode hex="00B0"/>
  <outline>
    <contour>
      <point x="347" y="468" type="curve" smooth="yes"/>
      <point x="347" y="277"/>
      <point x="316" y="245"/>
      <point x="155" y="245" type="curve" smooth="yes"/>
      <point x="23" y="245"/>
      <point x="4" y="293"/>
      <point x="4" y="475" type="curve" smooth="yes"/>
      <point x="4" y="695"/>
      <point x="33" y="725"/>
      <point x="197" y="725" type="curve" smooth="yes"/>
      <point x="307" y="725"/>
      <point x="347" y="676"/>
    </contour>
    <contour>
      <point x="188" y="518" type="curve" smooth="yes"/>
      <point x="188" y="589"/>
      <point x="186" y="597"/>
      <point x="177" y="597" type="curve" smooth="yes"/>
      <point x="166" y="597"/>
      <point x="164" y="587"/>
      <point x="164" y="478" type="curve" smooth="yes"/>
      <point x="164" y="379"/>
      <point x="166" y="370"/>
      <point x="175" y="370" type="curve" smooth="yes"/>
      <point x="185" y="370"/>
      <point x="188" y="379"/>
    </contour>
  </outline>
</glyph>
<glyph name="acute" format="1">
  <advance width="324"/>
  <unicode hex="00B4"/>
  <outline>
    <contour>
      <point x="289" y="620" type="line"/>
      <point x="80" y="564" type="line"/>
      <point x="46" y="691" type="line"/>
      <point x="251" y="784" type="line"/>
    </contour>
  </outline>
</glyph>
<glyph name="paragraph" format="1">
  <advance width="486"/>
  <unicode hex="00B6"/>
  <outline>
    <contour>
      <point x="483" y="706" type="line"/>
      <point x="451" y="-4" type="line"/>
      <point x="334" y="14" type="line"/>
      <point x="370" y="601" type="line"/>
      <point x="339" y="607" type="line"/>
      <point x="319" y="38" type="line"/>
      <point x="215" y="7" type="line"/>
      <point x="203" y="229" type="line"/>
      <point x="52" y="292"/>
      <point x="4" y="364"/>
      <point x="4" y="534" type="curve" smooth="yes"/>
      <point x="4" y="679"/>
      <point x="71" y="732"/>
      <point x="199" y="724" type="curve" smooth="yes"/>
    </contour>
  </outline>
</glyph>
<glyph name="periodcentered" format="1">
  <advance width="245"/>
  <unicode hex="00B7"/>
  <unicode hex="2219"/>
  <outline>
    <contour>
      <point x="238" y="209" type="line"/>
      <point x="11" y="213" type="line"/>
      <point x="8" y="444" type="line"/>
      <point x="235" y="461" type="line"/>
    </contour>
  </outline>
</glyph>
<glyph name="cedilla" format="1">
  <advance width="324"/>
  <unicode hex="00B8"/>
  <outline>
    <contour>
      <point x="273" y="-101" type="line"/>
      <point x="65" y="-167" type="line"/>
      <point x="31" y="-68" type="line"/>
      <point x="235" y="65" type="line"/>
    </contour>
  </outline>
</glyph>
<glyph name="ordmasculine" format="1">
  <advance width="355"/>
  <unicode hex="00BA"/>
  <outline>
    <contour>
      <point x="351" y="486" type="curve" smooth="yes"/>
      <point x="351" y="307"/>
      <point x="319" y="276"/>
      <point x="157" y="276" type="curve" smooth="yes"/>
      <point x="23" y="276"/>
      <point x="3" y="322"/>
      <point x="3" y="491" type="curve" smooth="yes"/>
      <point x="3" y="697"/>
      <point x="32" y="726"/>
      <point x="198" y="726" type="curve" smooth="yes"/>
      <point x="310" y="726"/>
      <point x="351" y="679"/>
    </contour>
    <contour>
      <point x="336" y="108" type="line"/>
      <point x="20" y="113" type="line"/>
      <point x="31" y="244" type="line"/>
      <point x="335" y="253" type="line"/>
    </contour>
    <contour>
      <point x="191" y="530" type="curve" smooth="yes"/>
      <point x="191" y="591"/>
      <point x="189" y="604"/>
      <point x="178" y="604" type="curve" smooth="yes"/>
      <point x="167" y="604"/>
      <point x="164" y="591"/>
      <point x="164" y="496" type="curve" smooth="yes"/>
      <point x="164" y="415"/>
      <point x="167" y="394"/>
      <point x="177" y="394" type="curve" smooth="yes"/>
      <point x="186" y="394"/>
      <point x="191" y="405"/>
    </contour>
  </outline>
</glyph>
<glyph name="guillemotright" format="1">
  <advance width="513"/>
  <unicode hex="00BB"/>
  <outline>
    <contour>
      <point x="510" y="315" type="line"/>
      <point x="432" y="14" type="line"/>
      <point x="259" y="-12" type="line"/>
      <point x="321" y="207" type="line"/>
      <point x="258" y="512" type="line"/>
      <point x="425" y="585" type="line"/>
    </contour>
    <contour>
      <point x="299" y="238" type="line"/>
      <point x="234" y="-30" type="line"/>
      <point x="5" y="36" type="line"/>
      <point x="69" y="292" type="line"/>
      <point x="37" y="567" type="line"/>
      <point x="216" y="558" type="line"/>
    </contour>
  </outline>
</glyph>
<glyph name="Aring" format="1">
  <advance width="518"/>
  <unicode hex="00C5"/>
  <outline>
    <contour>
      <point x="389" y="848" type="curve" smooth="yes"/>
      <point x="389" y="750"/>
      <point x="366" y="734"/>
      <point x="248" y="734" type="curve" smooth="yes"/>
      <point x="151" y="734"/>
      <point x="137" y="758"/>
      <point x="137" y="852" type="curve" smooth="yes"/>
      <point x="137" y="964"/>
      <point x="157" y="980"/>
      <point x="278" y="980" type="curve" smooth="yes"/>
      <point x="359" y="980"/>
      <point x="389" y="954"/>
    </contour>
    <contour>
      <point x="518" y="0" type="line"/>
      <point x="296" y="-30" type="line"/>
      <point x="287" y="74" type="line"/>
      <point x="217" y="64" type="line"/>
      <point x="210" y="-3" type="line"/>
      <point x="1" y="12" type="line"/>
      <point x="89" y="727" type="line"/>
      <point x="397" y="711" type="line"/>
    </contour>
    <contour>
      <point x="276" y="869" type="curve" smooth="yes"/>
      <point x="276" y="891"/>
      <point x="274" y="897"/>
      <point x="264" y="897" type="curve" smooth="yes"/>
      <point x="253" y="897"/>
      <point x="250" y="891"/>
      <point x="250" y="854" type="curve" smooth="yes"/>
      <point x="250" y="826"/>
      <point x="253" y="816"/>
      <point x="262" y="816" type="curve" smooth="yes"/>
      <point x="272" y="816"/>
      <point x="276" y="821"/>
    </contour>
    <contour>
      <point x="273" y="221" type="line"/>
      <point x="256" y="411" type="line"/>
      <point x="234" y="213" type="line"/>
    </contour>
  </outline>
</glyph>
<glyph name="AE" format="1">
  <advance width="709"/>
  <unicode hex="00C6"/>
  <outline>
    <contour>
      <point x="701" y="516" type="line"/>
      <point x="515" y="508" type="line"/>
      <point x="519" y="445" type="line"/>
      <point x="662" y="470" type="line"/>
      <point x="671" y="283" type="line"/>
      <point x="531" y="267" type="line"/>
      <point x="529" y="224" type="line"/>
      <point x="691" y="215" type="line"/>
      <point x="689" y="-7" type="line"/>
      <point x="277" y="6" type="line"/>
      <point x="276" y="72" type="line"/>
      <point x="218" y="64" type="line"/>
      <point x="210" y="-3" type="line"/>
      <point x="1" y="12" type="line"/>
      <point x="103" y="727" type="line"/>
      <point x="348" y="700" type="line"/>
      <point x="695" y="725" type="line"/>
    </contour>
    <contour>
      <point x="275" y="222" type="line"/>
      <point x="272" y="494" type="line"/>
      <point x="238" y="214" type="line"/>
    </contour>
  </outline>
</glyph>
<glyph name="Ccedilla" format="1">
  <advance width="464"/>
  <unicode hex="00C7"/>
  <outline>
    <contour>
      <point x="461" y="686" type="curve"/>
      <point x="439" y="423" type="line"/>
      <point x="398" y="449"/>
      <point x="377" y="457"/>
      <point x="346" y="457" type="curve" smooth="yes"/>
      <point x="295" y="457"/>
      <point x="281" y="427"/>
      <point x="281" y="347" type="curve" smooth="yes"/>
      <point x="281" y="280"/>
      <point x="297" y="232"/>
      <point x="360" y="232" type="curve" smooth="yes"/>
      <point x="389" y="232"/>
      <point x="405" y="236"/>
      <point x="432" y="246" type="curve"/>
      <point x="455" y="23" type="line"/>
      <point x="408" y="7"/>
      <point x="370" y="-5"/>
      <point x="311" y="-9" type="curve"/>
      <point x="332" y="-101" type="line"/>
      <point x="124" y="-167" type="line"/>
      <point x="90" y="-68" type="line"/>
      <point x="184" y="-7" type="line"/>
      <point x="30" y="17"/>
      <point x="5" y="132"/>
      <point x="5" y="371" type="curve" smooth="yes"/>
      <point x="5" y="640"/>
      <point x="44" y="727"/>
      <point x="247" y="727" type="curve" smooth="yes"/>
      <point x="334" y="727"/>
      <point x="400" y="714"/>
    </contour>
  </outline>
</glyph>
<glyph name="Eth" format="1">
  <advance width="563"/>
  <unicode hex="00D0"/>
  <outline>
    <contour>
      <point x="556" y="398" type="curve" smooth="yes"/>
      <point x="556" y="81"/>
      <point x="482" y="-14"/>
      <point x="314" y="-7" type="curve" smooth="yes"/>
      <point x="35" y="4" type="line"/>
      <point x="41" y="220" type="line"/>
      <point x="2" y="227" type="line"/>
      <point x="2" y="455" type="line"/>
      <point x="39" y="457" type="line"/>
      <point x="31" y="716" type="line"/>
      <point x="386" y="725" type="line" smooth="yes"/>
      <point x="488" y="728"/>
      <point x="556" y="699"/>
    </contour>
    <contour>
      <point x="310" y="373" type="curve" smooth="yes"/>
      <point x="310" y="488"/>
      <point x="306" y="500"/>
      <point x="273" y="500" type="curve"/>
      <point x="275" y="201" type="line"/>
      <point x="304" y="205"/>
      <point x="310" y="219"/>
    </contour>
  </outline>
</glyph>
<glyph name="Oslash" format="1">
  <advance width="540"/>
  <unicode hex="00D8"/>
  <outline>
    <contour>
      <point x="534" y="331" type="curve" smooth="yes"/>
      <point x="534" y="37"/>
      <point x="485" y="-13"/>
      <point x="240" y="-13" type="curve" smooth="yes"/>
      <point x="230" y="-13"/>
      <point x="219" y="-13"/>
      <point x="209" y="-12" type="curve"/>
      <point x="155" y="-122" type="line"/>
      <point x="27" y="-45" type="line"/>
      <point x="60" y="40" type="line"/>
      <point x="15" y="92"/>
      <point x="6" y="184"/>
      <point x="6" y="341" type="curve" smooth="yes"/>
      <point x="6" y="679"/>
      <point x="51" y="727"/>
      <point x="303" y="727" type="curve" smooth="yes"/>
      <point x="312" y="727"/>
      <point x="321" y="727"/>
      <point x="330" y="726" type="curve"/>
      <point x="368" y="814" type="line"/>
      <point x="518" y="733" type="line"/>
      <point x="482" y="649" type="line"/>
      <point x="519" y="589"/>
      <point x="534" y="490"/>
    </contour>
    <contour>
      <point x="290" y="402" type="curve" smooth="yes"/>
      <point x="290" y="512"/>
      <point x="287" y="517"/>
      <point x="273" y="517" type="curve" smooth="yes"/>
      <point x="256" y="517"/>
      <point x="253" y="510"/>
      <point x="253" y="344" type="curve" smooth="yes"/>
      <point x="253" y="196"/>
      <point x="257" y="185"/>
      <point x="270" y="185" type="curve" smooth="yes"/>
      <point x="284" y="185"/>
      <point x="290" y="191"/>
    </contour>
  </outline>
</glyph>
<glyph name="Thorn" format="1">
  <advance width="521"/>
  <unicode hex="00DE"/>
  <outline>
    <contour>
      <point x="511" y="392" type="curve" smooth="yes"/>
      <point x="511" y="182"/>
      <point x="440" y="111"/>
      <point x="258" y="90" type="curve"/>
      <point x="263" y="9" type="line"/>
      <point x="19" y="-5" type="line"/>
      <point x="10" y="716" type="line"/>
      <point x="248" y="724" type="line"/>
      <point x="250" y="643" type="line"/>
      <point x="322" y="646" type="line" smooth="yes"/>
      <point x="447" y="651"/>
      <point x="511" y="619"/>
    </contour>
    <contour>
      <point x="289" y="391" type="curve" smooth="yes"/>
      <point x="289" y="447"/>
      <point x="280" y="455"/>
      <point x="255" y="451" type="curve"/>
      <point x="258" y="269" type="line"/>
      <point x="280" y="276"/>
      <point x="289" y="304"/>
    </contour>
  </outline>
</glyph>
<glyph name="germandbls" format="1">
  <advance width="596"/>
  <unicode hex="00DF"/>
  <outline>
    <contour>
      <point x="590" y="171" type="curve" smooth="yes"/>
      <point x="590" y="34"/>
      <point x="562" y="-6"/>
      <point x="434" y="-6" type="curve" smooth="yes"/>
      <point x="385" y="-6"/>
      <point x="319" y="7"/>
      <point x="281" y="32" type="curve"/>
      <point x="289" y="191" type="line"/>
      <point x="329" y="164"/>
      <point x="372" y="144"/>
      <point x="406" y="144" type="curve" smooth="yes"/>
      <point x="423" y="144"/>
      <point x="429" y="150"/>
      <point x="429" y="162" type="curve" smooth="yes"/>
      <point x="429" y="175"/>
      <point x="423" y="181"/>
      <point x="402" y="187" type="curve" smooth="yes"/>
      <point x="308" y="213"/>
      <point x="284" y="253"/>
      <point x="284" y="365" type="curve" smooth="yes"/>
      <point x="284" y="420"/>
      <point x="304" y="476"/>
      <point x="331" y="514" type="curve"/>
      <point x="318" y="521"/>
      <point x="305" y="525"/>
      <point x="290" y="525" type="curve" smooth="yes"/>
      <point x="270" y="525"/>
      <point x="259" y="507"/>
      <point x="260" y="470" type="curve" smooth="yes"/>
      <point x="269" y="5" type="line"/>
      <point x="64" y="-13" type="line"/>
      <point x="59" y="187" type="line"/>
      <point x="4" y="193" type="line"/>
      <point x="7" y="389" type="line"/>
      <point x="55" y="390" type="line"/>
      <point x="52" y="468" type="line" smooth="yes"/>
      <point x="45" y="662"/>
      <point x="92" y="729"/>
      <point x="244" y="729" type="curve" smooth="yes"/>
      <point x="337" y="729"/>
      <point x="427" y="700"/>
      <point x="525" y="643" type="curve"/>
      <point x="515" y="430" type="line"/>
      <point x="455" y="421"/>
      <point x="446" y="407"/>
      <point x="446" y="384" type="curve" smooth="yes"/>
      <point x="446" y="366"/>
      <point x="451" y="357"/>
      <point x="487" y="343" type="curve" smooth="yes"/>
      <point x="556" y="316"/>
      <point x="590" y="276"/>
    </contour>
  </outline>
</glyph>
<glyph name="ae" format="1">
  <advance width="662"/>
  <unicode hex="00E6"/>
  <outline>
    <contour>
      <point x="658" y="36" type="line"/>
      <point x="588" y="5"/>
      <point x="522" y="-5"/>
      <point x="432" y="-5" type="curve" smooth="yes"/>
      <point x="368" y="-5"/>
      <point x="326" y="16"/>
      <point x="298" y="45" type="curve"/>
      <point x="234" y="3"/>
      <point x="179" y="-13"/>
      <point x="108" y="-13" type="curve" smooth="yes"/>
      <point x="29" y="-13"/>
      <point x="2" y="23"/>
      <point x="2" y="128" type="curve" smooth="yes"/>
      <point x="2" y="266"/>
      <point x="58" y="332"/>
      <point x="239" y="332" type="curve"/>
      <point x="239" y="355"/>
      <point x="232" y="365"/>
      <point x="206" y="365" type="curve" smooth="yes"/>
      <point x="145" y="365"/>
      <point x="108" y="354"/>
      <point x="56" y="334" type="curve"/>
      <point x="32" y="508" type="line"/>
      <point x="88" y="535"/>
      <point x="161" y="551"/>
      <point x="218" y="551" type="curve" smooth="yes"/>
      <point x="271" y="551"/>
      <point x="319" y="535"/>
      <point x="351" y="509" type="curve"/>
      <point x="385" y="533"/>
      <point x="424" y="551"/>
      <point x="475" y="551" type="curve" smooth="yes"/>
      <point x="607" y="551"/>
      <point x="649" y="477"/>
      <point x="654" y="327" type="curve" smooth="yes"/>
      <point x="657" y="228" type="line"/>
      <point x="440" y="177" type="line"/>
      <point x="448" y="165"/>
      <point x="462" y="157"/>
      <point x="497" y="157" type="curve" smooth="yes"/>
      <point x="538" y="157"/>
      <point x="591" y="166"/>
      <point x="644" y="185" type="curve"/>
    </contour>
    <contour>
      <point x="470" y="323" type="line"/>
      <point x="467" y="379"/>
      <point x="465" y="393"/>
      <point x="449" y="393" type="curve" smooth="yes"/>
      <point x="432" y="393"/>
      <point x="429" y="379"/>
      <point x="429" y="311" type="curve"/>
    </contour>
    <contour>
      <point x="242" y="171" type="curve"/>
      <point x="239" y="201" type="line"/>
      <point x="183" y="201"/>
      <point x="173" y="188"/>
      <point x="173" y="167" type="curve" smooth="yes"/>
      <point x="173" y="157"/>
      <point x="178" y="151"/>
      <point x="193" y="151" type="curve" smooth="yes"/>
      <point x="206" y="151"/>
      <point x="227" y="157"/>
    </contour>
  </outline>
</glyph>
<glyph name="ccedilla" format="1">
  <advance width="403"/>
  <unicode hex="00E7"/>
  <outline>
    <contour>
      <point x="402" y="521" type="curve"/>
      <point x="382" y="321" type="line"/>
      <point x="351" y="339"/>
      <point x="324" y="347"/>
      <point x="295" y="347" type="curve" smooth="yes"/>
      <point x="257" y="347"/>
      <point x="247" y="312"/>
      <point x="247" y="264" type="curve" smooth="yes"/>
      <point x="247" y="212"/>
      <point x="255" y="177"/>
      <point x="306" y="177" type="curve" smooth="yes"/>
      <point x="337" y="177"/>
      <point x="350" y="180"/>
      <point x="376" y="187" type="curve"/>
      <point x="396" y="18" type="line"/>
      <point x="362" y="7"/>
      <point x="332" y="-1"/>
      <point x="292" y="-5" type="curve"/>
      <point x="314" y="-101" type="line"/>
      <point x="106" y="-167" type="line"/>
      <point x="72" y="-68" type="line"/>
      <point x="168" y="-5" type="line"/>
      <point x="27" y="10"/>
      <point x="5" y="96"/>
      <point x="5" y="282" type="curve" smooth="yes"/>
      <point x="5" y="486"/>
      <point x="38" y="553"/>
      <point x="215" y="553" type="curve" smooth="yes"/>
      <point x="299" y="553"/>
      <point x="345" y="544"/>
    </contour>
  </outline>
</glyph>
<glyph name="eth" format="1">
  <advance width="446"/>
  <unicode hex="00F0"/>
  <outline>
    <contour>
      <point x="440" y="284" type="curve" smooth="yes"/>
      <point x="440" y="19"/>
      <point x="395" y="-13"/>
      <point x="198" y="-13" type="curve" smooth="yes"/>
      <point x="50" y="-13"/>
      <point x="5" y="35"/>
      <point x="5" y="216" type="curve" smooth="yes"/>
      <point x="5" y="422"/>
      <point x="37" y="461"/>
      <point x="214" y="465" type="curve"/>
      <point x="188" y="505"/>
      <point x="138" y="529"/>
      <point x="47" y="545" type="curve"/>
      <point x="67" y="744" type="line"/>
      <point x="156" y="735"/>
      <point x="229" y="714"/>
      <point x="285" y="677" type="curve"/>
      <point x="328" y="760" type="line"/>
      <point x="434" y="668" type="line"/>
      <point x="396" y="545" type="line"/>
      <point x="425" y="479"/>
      <point x="440" y="393"/>
    </contour>
    <contour>
      <point x="239" y="251" type="curve" smooth="yes"/>
      <point x="239" y="301"/>
      <point x="236" y="312"/>
      <point x="224" y="312" type="curve" smooth="yes"/>
      <point x="210" y="312"/>
      <point x="209" y="301"/>
      <point x="209" y="222" type="curve" smooth="yes"/>
      <point x="209" y="156"/>
      <point x="210" y="139"/>
      <point x="222" y="139" type="curve" smooth="yes"/>
      <point x="234" y="139"/>
      <point x="239" y="148"/>
    </contour>
  </outline>
</glyph>
<glyph name="oslash" format="1">
  <advance width="445"/>
  <unicode hex="00F8"/>
  <outline>
    <contour>
      <point x="440" y="252" type="curve" smooth="yes"/>
      <point x="440" y="28"/>
      <point x="399" y="-10"/>
      <point x="198" y="-10" type="curve" smooth="yes"/>
      <point x="189" y="-10"/>
      <point x="182" y="-10"/>
      <point x="174" y="-10" type="curve"/>
      <point x="125" y="-106" type="line"/>
      <point x="12" y="-32" type="line"/>
      <point x="41" y="40" type="line"/>
      <point x="12" y="81"/>
      <point x="5" y="149"/>
      <point x="5" y="259" type="curve" smooth="yes"/>
      <point x="5" y="517"/>
      <point x="41" y="553"/>
      <point x="249" y="553" type="curve" smooth="yes"/>
      <point x="251" y="553"/>
      <point x="254" y="553"/>
      <point x="256" y="553" type="curve"/>
      <point x="300" y="653" type="line"/>
      <point x="421" y="580" type="line"/>
      <point x="396" y="494" type="line"/>
      <point x="427" y="449"/>
      <point x="440" y="373"/>
    </contour>
    <contour>
      <point x="239" y="305" type="curve" smooth="yes"/>
      <point x="239" y="372"/>
      <point x="236" y="386"/>
      <point x="224" y="386" type="curve" smooth="yes"/>
      <point x="210" y="386"/>
      <point x="209" y="371"/>
      <point x="209" y="266" type="curve" smooth="yes"/>
      <point x="209" y="169"/>
      <point x="210" y="154"/>
      <point x="222" y="154" type="curve" smooth="yes"/>
      <point x="234" y="154"/>
      <point x="239" y="165"/>
    </contour>
  </outline>
</glyph>
<glyph name="thorn" format="1">
  <advance width="486"/>
  <unicode hex="00FE"/>
  <outline>
    <contour>
      <point x="480" y="279" type="curve" smooth="yes"/>
      <point x="480" y="49"/>
      <point x="440" y="11"/>
      <point x="337" y="11" type="curve" smooth="yes"/>
      <point x="294" y="11"/>
      <point x="259" y="30"/>
      <point x="235" y="50" type="curve"/>
      <point x="233" y="-130" type="line"/>
      <point x="17" y="-124" type="line"/>
      <point x="6" y="733" type="line"/>
      <point x="233" y="715" type="line"/>
      <point x="223" y="506" type="line"/>
      <point x="267" y="537"/>
      <point x="304" y="551"/>
      <point x="358" y="551" type="curve" smooth="yes"/>
      <point x="436" y="551"/>
      <point x="480" y="503"/>
    </contour>
    <contour>
      <point x="262" y="284" type="curve" smooth="yes"/>
      <point x="262" y="348"/>
      <point x="259" y="358"/>
      <point x="247" y="358" type="curve" smooth="yes"/>
      <point x="236" y="358"/>
      <point x="231" y="344"/>
      <point x="231" y="258" type="curve" smooth="yes"/>
      <point x="231" y="192"/>
      <point x="235" y="178"/>
      <point x="247" y="178" type="curve" smooth="yes"/>
      <point x="258" y="178"/>
      <point x="262" y="194"/>
    </contour>
  </outline>
</glyph>
<glyph name="dotlessi" format="1">
  <advance width="254"/>
  <unicode hex="0131"/>
  <outline>
    <contour>
      <point x="245" y="493" type="line"/>
      <point x="230" y="-6" type="line"/>
      <point x="15" y="7" type="line"/>
      <point x="8" y="518" type="line"/>
    </contour>
  </outline>
</glyph>
<glyph name="Lslash" format="1">
  <advance width="470"/>
  <unicode hex="0141"/>
  <outline>
    <contour>
      <point x="466" y="249" type="line"/>
      <point x="448" y="-8" type="line"/>
      <point x="54" y="5" type="line"/>
      <point x="59" y="252" type="line"/>
      <point x="30" y="238" type="line"/>
      <point x="-3" y="432" type="line"/>
      <point x="59" y="473" type="line"/>
      <point x="56" y="724" type="line"/>
      <point x="321" y="733" type="line"/>
      <point x="317" y="603" type="line"/>
      <point x="394" y="626" type="line"/>
      <point x="413" y="445" type="line"/>
      <point x="317" y="378" type="line"/>
      <point x="325" y="236" type="line"/>
    </contour>
  </outline>
</glyph>
<glyph name="lslash" format="1">
  <advance width="337"/>
  <unicode hex="0142"/>
  <outline>
    <contour>
      <point x="343" y="347" type="line"/>
      <point x="271" y="295" type="line"/>
      <point x="278" y="6" type="line"/>
      <point x="51" y="-4" type="line"/>
      <point x="55" y="203" type="line"/>
      <point x="22" y="189" type="line"/>
      <point x="-7" y="376" type="line"/>
      <point x="56" y="412" type="line"/>
      <point x="44" y="716" type="line"/>
      <point x="271" y="729" type="line"/>
      <point x="268" y="497" type="line"/>
      <point x="308" y="529" type="line"/>
    </contour>
  </outline>
</glyph>
<glyph name="OE" format="1">
  <advance width="728"/>
  <unicode hex="0152"/>
  <outline>
    <contour>
      <point x="721" y="516" type="line"/>
      <point x="535" y="508" type="line"/>
      <point x="539" y="445" type="line"/>
      <point x="682" y="470" type="line"/>
      <point x="690" y="283" type="line"/>
      <point x="550" y="267" type="line"/>
      <point x="549" y="224" type="line"/>
      <point x="710" y="215" type="line"/>
      <point x="709" y="-7" type="line"/>
      <point x="412" y="21" type="line"/>
      <point x="367" y="4"/>
      <point x="296" y="-13"/>
      <point x="228" y="-13" type="curve" smooth="yes"/>
      <point x="39" y="-13"/>
      <point x="5" y="62"/>
      <point x="5" y="341" type="curve" smooth="yes"/>
      <point x="5" y="679"/>
      <point x="65" y="727"/>
      <point x="267" y="727" type="curve" smooth="yes"/>
      <point x="313" y="727"/>
      <point x="368" y="715"/>
      <point x="408" y="697" type="curve"/>
      <point x="715" y="725" type="line"/>
    </contour>
    <contour>
      <point x="289" y="402" type="curve" smooth="yes"/>
      <point x="289" y="512"/>
      <point x="286" y="517"/>
      <point x="272" y="517" type="curve" smooth="yes"/>
      <point x="255" y="517"/>
      <point x="252" y="510"/>
      <point x="252" y="344" type="curve" smooth="yes"/>
      <point x="252" y="196"/>
      <point x="256" y="185"/>
      <point x="269" y="185" type="curve" smooth="yes"/>
      <point x="283" y="185"/>
      <point x="289" y="191"/>
    </contour>
  </outline>
</glyph>
<glyph name="oe" format="1">
  <advance width="662"/>
  <unicode hex="0153"/>
  <outline>
    <contour>
      <point x="658" y="36" type="line"/>
      <point x="588" y="5"/>
      <point x="520" y="-5"/>
      <point x="449" y="-5" type="curve" smooth="yes"/>
      <point x="403" y="-5"/>
      <point x="362" y="14"/>
      <point x="338" y="31" type="curve"/>
      <point x="307" y="9"/>
      <point x="262" y="-10"/>
      <point x="197" y="-10" type="curve" smooth="yes"/>
      <point x="29" y="-10"/>
      <point x="4" y="47"/>
      <point x="4" y="259" type="curve" smooth="yes"/>
      <point x="4" y="487"/>
      <point x="38" y="553"/>
      <point x="221" y="553" type="curve" smooth="yes"/>
      <point x="272" y="553"/>
      <point x="319" y="533"/>
      <point x="347" y="508" type="curve"/>
      <point x="374" y="531"/>
      <point x="413" y="551"/>
      <point x="476" y="551" type="curve" smooth="yes"/>
      <point x="607" y="551"/>
      <point x="652" y="477"/>
      <point x="655" y="327" type="curve" smooth="yes"/>
      <point x="657" y="228" type="line"/>
      <point x="440" y="177" type="line"/>
      <point x="448" y="164"/>
      <point x="463" y="157"/>
      <point x="500" y="157" type="curve" smooth="yes"/>
      <point x="537" y="157"/>
      <point x="591" y="166"/>
      <point x="644" y="185" type="curve"/>
    </contour>
    <contour>
      <point x="470" y="323" type="line"/>
      <point x="467" y="379"/>
      <point x="465" y="393"/>
      <point x="449" y="393" type="curve" smooth="yes"/>
      <point x="432" y="393"/>
      <point x="429" y="379"/>
      <point x="429" y="311" type="curve"/>
    </contour>
    <contour>
      <point x="238" y="305" type="curve" smooth="yes"/>
      <point x="238" y="372"/>
      <point x="235" y="386"/>
      <point x="223" y="386" type="curve" smooth="yes"/>
      <point x="209" y="386"/>
      <point x="208" y="371"/>
      <point x="208" y="266" type="curve" smooth="yes"/>
      <point x="208" y="169"/>
      <point x="209" y="154"/>
      <point x="221" y="154" type="curve" smooth="yes"/>
      <point x="233" y="154"/>
      <point x="238" y="165"/>
    </contour>
  </outline>
</glyph>
<glyph name="florin" format="1">
  <advance width="491"/>
  <unicode hex="0192"/>
  <outline>
    <contour>
      <point x="490" y="687" type="curve"/>
      <point x="465" y="424" type="line"/>
      <point x="420" y="456"/>
      <point x="394" y="465"/>
      <point x="351" y="465" type="curve" smooth="yes"/>
      <point x="311" y="465"/>
      <point x="300" y="439"/>
      <point x="300" y="359" type="curve"/>
      <point x="424" y="355" type="line"/>
      <point x="390" y="122" type="line"/>
      <point x="311" y="132" type="line"/>
      <point x="316" y="0" type="line"/>
      <point x="78" y="-15" type="line"/>
      <point x="70" y="163" type="line"/>
      <point x="2" y="172" type="line"/>
      <point x="10" y="369" type="line"/>
      <point x="58" y="367" type="line"/>
      <point x="54" y="459" type="line" smooth="yes"/>
      <point x="45" y="675"/>
      <point x="130" y="724"/>
      <point x="233" y="724" type="curve" smooth="yes"/>
      <point x="335" y="724"/>
      <point x="411" y="712"/>
    </contour>
  </outline>
</glyph>
<glyph name="circumflex" format="1">
  <advance width="324"/>
  <unicode hex="02C6"/>
  <outline>
    <contour>
      <point x="334" y="659" type="line"/>
      <point x="299" y="553" type="line"/>
      <point x="161" y="608" type="line"/>
      <point x="23" y="548" type="line"/>
      <point x="-10" y="651" type="line"/>
      <point x="181" y="776" type="line"/>
    </contour>
  </outline>
</glyph>
<glyph name="caron" format="1">
  <advance width="324"/>
  <unicode hex="02C7"/>
  <outline>
    <contour>
      <point x="334" y="680" type="line"/>
      <point x="143" y="555" type="line"/>
      <point x="-10" y="672" type="line"/>
      <point x="25" y="779" type="line"/>
      <point x="163" y="723" type="line"/>
      <point x="301" y="784" type="line"/>
    </contour>
  </outline>
</glyph>
<glyph name="breve" format="1">
  <advance width="324"/>
  <unicode hex="02D8"/>
  <outline>
    <contour>
      <point x="334" y="652" type="line"/>
      <point x="291" y="588"/>
      <point x="221" y="569"/>
      <point x="155" y="569" type="curve" smooth="yes"/>
      <point x="90" y="569"/>
      <point x="27" y="596"/>
      <point x="-10" y="645" type="curve"/>
      <point x="35" y="769" type="line"/>
      <point x="74" y="731"/>
      <point x="110" y="713"/>
      <point x="163" y="713" type="curve" smooth="yes"/>
      <point x="213" y="713"/>
      <point x="251" y="731"/>
      <point x="290" y="772" type="curve"/>
    </contour>
  </outline>
</glyph>
<glyph name="dotaccent" format="1">
  <advance width="324"/>
  <unicode hex="02D9"/>
  <outline>
    <contour>
      <point x="235" y="739" type="line"/>
      <point x="229" y="566" type="line"/>
      <point x="94" y="575" type="line"/>
      <point x="85" y="745" type="line"/>
    </contour>
  </outline>
</glyph>
<glyph name="ring" format="1">
  <advance width="324"/>
  <unicode hex="02DA"/>
  <outline>
    <contour>
      <point x="288" y="681" type="curve" smooth="yes"/>
      <point x="288" y="583"/>
      <point x="265" y="567"/>
      <point x="147" y="567" type="curve" smooth="yes"/>
      <point x="50" y="567"/>
      <point x="36" y="591"/>
      <point x="36" y="685" type="curve" smooth="yes"/>
      <point x="36" y="797"/>
      <point x="56" y="813"/>
      <point x="177" y="813" type="curve" smooth="yes"/>
      <point x="258" y="813"/>
      <point x="288" y="787"/>
    </contour>
    <contour>
      <point x="175" y="702" type="curve" smooth="yes"/>
      <point x="175" y="724"/>
      <point x="173" y="730"/>
      <point x="163" y="730" type="curve" smooth="yes"/>
      <point x="152" y="730"/>
      <point x="149" y="724"/>
      <point x="149" y="687" type="curve" smooth="yes"/>
      <point x="149" y="659"/>
      <point x="152" y="649"/>
      <point x="161" y="649" type="curve" smooth="yes"/>
      <point x="171" y="649"/>
      <point x="175" y="654"/>
    </contour>
  </outline>
</glyph>
<glyph name="ogonek" format="1">
  <advance width="324"/>
  <unicode hex="02DB"/>
  <outline>
    <contour>
      <point x="293" y="-68" type="line"/>
      <point x="259" y="-167" type="line"/>
      <point x="51" y="-101" type="line"/>
      <point x="89" y="65" type="line"/>
    </contour>
  </outline>
</glyph>
<glyph name="tilde" format="1">
  <advance width="324"/>
  <unicode hex="02DC"/>
  <outline>
    <contour>
      <point x="334" y="718" type="line"/>
      <point x="323" y="584"/>
      <point x="288" y="565"/>
      <point x="246" y="565" type="curve" smooth="yes"/>
      <point x="217" y="565"/>
      <point x="197" y="572"/>
      <point x="171" y="580" type="curve" smooth="yes"/>
      <point x="140" y="590"/>
      <point x="122" y="595"/>
      <point x="106" y="595" type="curve" smooth="yes"/>
      <point x="88" y="595"/>
      <point x="82" y="587"/>
      <point x="74" y="560" type="curve"/>
      <point x="-8" y="579" type="line"/>
      <point x="4" y="714"/>
      <point x="18" y="747"/>
      <point x="70" y="747" type="curve" smooth="yes"/>
      <point x="92" y="747"/>
      <point x="114" y="739"/>
      <point x="142" y="727" type="curve" smooth="yes"/>
      <point x="173" y="714"/>
      <point x="191" y="707"/>
      <point x="207" y="707" type="curve" smooth="yes"/>
      <point x="227" y="707"/>
      <point x="238" y="715"/>
      <point x="243" y="741" type="curve"/>
    </contour>
  </outline>
</glyph>
<glyph name="hungarumlaut" format="1">
  <advance width="324"/>
  <unicode hex="02DD"/>
  <outline>
    <contour>
      <point x="186" y="736" type="line"/>
      <point x="77" y="571" type="line"/>
      <point x="1" y="655" type="line"/>
      <point x="83" y="828" type="line"/>
    </contour>
    <contour>
      <point x="324" y="721" type="line"/>
      <point x="214" y="560" type="line"/>
      <point x="133" y="625" type="line"/>
      <point x="224" y="794" type="line"/>
    </contour>
  </outline>
</glyph>
<glyph name="endash" format="1">
  <advance width="310"/>
  <unicode hex="2013"/>
  <outline>
    <contour>
      <point x="304" y="211" type="line"/>
      <point x="12" y="194" type="line"/>
      <point x="7" y="447" type="line"/>
      <point x="299" y="450" type="line"/>
    </contour>
  </outline>
</glyph>
<glyph name="emdash" format="1">
  <advance width="389"/>
  <unicode hex="2014"/>
  <outline>
    <contour>
      <point x="381" y="433" type="line"/>
      <point x="375" y="194" type="line"/>
      <point x="5" y="212" type="line"/>
      <point x="11" y="463" type="line"/>
    </contour>
  </outline>
</glyph>
<glyph name="quoteleft" format="1">
  <advance width="270"/>
  <unicode hex="2018"/>
  <unicode hex="02BB"/>
  <outline>
    <contour>
      <point x="262" y="449" type="line"/>
      <point x="126" y="362" type="line"/>
      <point x="4" y="660" type="line"/>
      <point x="209" y="760" type="line"/>
    </contour>
  </outline>
</glyph>
<glyph name="quoteright" format="1">
  <advance width="270"/>
  <unicode hex="2019"/>
  <unicode hex="02BC"/>
  <outline>
    <contour>
      <point x="265" y="709" type="line"/>
      <point x="178" y="346" type="line"/>
      <point x="5" y="427" type="line"/>
      <point x="50" y="741" type="line"/>
    </contour>
  </outline>
</glyph>
<glyph name="quotesinglbase" format="1">
  <advance width="270"/>
  <unicode hex="201A"/>
  <outline>
    <contour>
      <point x="262" y="223" type="line"/>
      <point x="164" y="-140" type="line"/>
      <point x="-8" y="-59" type="line"/>
      <point x="47" y="254" type="line"/>
    </contour>
  </outline>
</glyph>
<glyph name="quotedblleft" format="1">
  <advance width="459"/>
  <unicode hex="201C"/>
  <outline>
    <contour>
      <point x="452" y="751" type="line"/>
      <point x="430" y="391" type="line"/>
      <point x="280" y="364" type="line"/>
      <point x="226" y="704" type="line"/>
    </contour>
    <contour>
      <point x="245" y="306" type="line"/>
      <point x="82" y="339" type="line"/>
      <point x="4" y="664" type="line"/>
      <point x="206" y="752" type="line"/>
    </contour>
  </outline>
</glyph>
<glyph name="quotedblright" format="1">
  <advance width="459"/>
  <unicode hex="201D"/>
  <outline>
    <contour>
      <point x="221" y="689" type="line"/>
      <point x="149" y="362" type="line"/>
      <point x="5" y="409" type="line"/>
      <point x="33" y="743" type="line"/>
    </contour>
    <contour>
      <point x="455" y="700" type="line"/>
      <point x="359" y="375" type="line"/>
      <point x="206" y="409" type="line"/>
      <point x="234" y="723" type="line"/>
    </contour>
  </outline>
</glyph>
<glyph name="quotedblbase" format="1">
  <advance width="459"/>
  <unicode hex="201E"/>
  <outline>
    <contour>
      <point x="217" y="203" type="line"/>
      <point x="145" y="-124" type="line"/>
      <point x="1" y="-77" type="line"/>
      <point x="29" y="257" type="line"/>
    </contour>
    <contour>
      <point x="451" y="214" type="line"/>
      <point x="355" y="-111" type="line"/>
      <point x="202" y="-77" type="line"/>
      <point x="230" y="237" type="line"/>
    </contour>
  </outline>
</glyph>
<glyph name="dagger" format="1">
  <advance width="421"/>
  <unicode hex="2020"/>
  <outline>
    <contour>
      <point x="417" y="417" type="line"/>
      <point x="296" y="394" type="line"/>
      <point x="302" y="-9" type="line"/>
      <point x="106" y="9" type="line"/>
      <point x="109" y="382" type="line"/>
      <point x="5" y="392" type="line"/>
      <point x="8" y="607" type="line"/>
      <point x="109" y="594" type="line"/>
      <point x="115" y="721" type="line"/>
      <point x="307" y="731" type="line"/>
      <point x="310" y="595" type="line"/>
      <point x="407" y="592" type="line"/>
    </contour>
  </outline>
</glyph>
<glyph name="daggerdbl" format="1">
  <advance width="421"/>
  <unicode hex="2021"/>
  <outline>
    <contour>
      <point x="415" y="121" type="line"/>
      <point x="301" y="122" type="line"/>
      <point x="299" y="9" type="line"/>
      <point x="118" y="-7" type="line"/>
      <point x="114" y="103" type="line"/>
      <point x="6" y="91" type="line"/>
      <point x="10" y="298" type="line"/>
      <point x="106" y="307" type="line"/>
      <point x="104" y="423" type="line"/>
      <point x="8" y="425" type="line"/>
      <point x="6" y="607" type="line"/>
      <point x="122" y="625" type="line"/>
      <point x="127" y="724" type="line"/>
      <point x="304" y="731" type="line"/>
      <point x="311" y="616" type="line"/>
      <point x="415" y="610" type="line"/>
      <point x="412" y="441" type="line"/>
      <point x="313" y="442" type="line"/>
      <point x="309" y="324" type="line"/>
      <point x="410" y="327" type="line"/>
    </contour>
  </outline>
</glyph>
<glyph name="bullet" format="1">
  <advance width="370"/>
  <unicode hex="2022"/>
  <outline>
    <contour>
      <point x="364" y="338" type="curve" smooth="yes"/>
      <point x="364" y="170"/>
      <point x="331" y="142"/>
      <point x="164" y="142" type="curve" smooth="yes"/>
      <point x="26" y="142"/>
      <point x="5" y="184"/>
      <point x="5" y="343" type="curve" smooth="yes"/>
      <point x="5" y="536"/>
      <point x="36" y="563"/>
      <point x="207" y="563" type="curve" smooth="yes"/>
      <point x="322" y="563"/>
      <point x="364" y="520"/>
    </contour>
  </outline>
</glyph>
<glyph name="ellipsis" format="1">
  <advance width="737"/>
  <unicode hex="2026"/>
  <outline>
    <contour>
      <point x="238" y="7" type="line"/>
      <point x="11" y="-7" type="line"/>
      <point x="8" y="225" type="line"/>
      <point x="230" y="241" type="line"/>
    </contour>
    <contour>
      <point x="729" y="223" type="line"/>
      <point x="726" y="-9" type="line"/>
      <point x="505" y="-13" type="line"/>
      <point x="496" y="239" type="line"/>
    </contour>
    <contour>
      <point x="482" y="216" type="line"/>
      <point x="480" y="-18" type="line"/>
      <point x="252" y="-20" type="line"/>
      <point x="256" y="230" type="line"/>
    </contour>
  </outline>
</glyph>
<glyph name="perthousand" format="1">
  <advance width="751"/>
  <unicode hex="2030"/>
  <outline>
    <contour>
      <point x="746" y="238" type="curve" smooth="yes"/>
      <point x="746" y="18"/>
      <point x="701" y="-13"/>
      <point x="580" y="-13" type="curve" smooth="yes"/>
      <point x="535" y="-13"/>
      <point x="495" y="5"/>
      <point x="473" y="22" type="curve"/>
      <point x="449" y="2"/>
      <point x="407" y="-11"/>
      <point x="355" y="-11" type="curve" smooth="yes"/>
      <point x="250" y="-11"/>
      <point x="221" y="42"/>
      <point x="217" y="144" type="curve"/>
      <point x="94" y="-12" type="line"/>
      <point x="8" y="80" type="line"/>
      <point x="129" y="257" type="line"/>
      <point x="32" y="266"/>
      <point x="4" y="311"/>
      <point x="4" y="475" type="curve" smooth="yes"/>
      <point x="4" y="695"/>
      <point x="33" y="725"/>
      <point x="197" y="725" type="curve" smooth="yes"/>
      <point x="292" y="725"/>
      <point x="324" y="679"/>
      <point x="334" y="538" type="curve"/>
      <point x="443" y="719" type="line"/>
      <point x="543" y="631" type="line"/>
      <point x="436" y="446" type="line"/>
      <point x="448" y="441"/>
      <point x="469" y="434"/>
      <point x="477" y="426" type="curve"/>
      <point x="499" y="444"/>
      <point x="539" y="468"/>
      <point x="595" y="468" type="curve" smooth="yes"/>
      <point x="721" y="468"/>
      <point x="746" y="419"/>
    </contour>
    <contour>
      <point x="188" y="521" type="curve" smooth="yes"/>
      <point x="188" y="584"/>
      <point x="186" y="597"/>
      <point x="177" y="597" type="curve" smooth="yes"/>
      <point x="166" y="597"/>
      <point x="164" y="584"/>
      <point x="164" y="484" type="curve" smooth="yes"/>
      <point x="164" y="402"/>
      <point x="166" y="380"/>
      <point x="175" y="380" type="curve" smooth="yes"/>
      <point x="185" y="380"/>
      <point x="188" y="392"/>
    </contour>
    <contour>
      <point x="586" y="229" type="curve" smooth="yes"/>
      <point x="586" y="323"/>
      <point x="584" y="332"/>
      <point x="575" y="332" type="curve" smooth="yes"/>
      <point x="566" y="332"/>
      <point x="562" y="321"/>
      <point x="562" y="191" type="curve" smooth="yes"/>
      <point x="562" y="124"/>
      <point x="564" y="115"/>
      <point x="574" y="115" type="curve" smooth="yes"/>
      <point x="584" y="115"/>
      <point x="586" y="124"/>
    </contour>
    <contour>
      <point x="388" y="256" type="curve" smooth="yes"/>
      <point x="388" y="318"/>
      <point x="386" y="332"/>
      <point x="376" y="332" type="curve" smooth="yes"/>
      <point x="365" y="332"/>
      <point x="364" y="318"/>
      <point x="364" y="218" type="curve" smooth="yes"/>
      <point x="364" y="138"/>
      <point x="365" y="115"/>
      <point x="375" y="115" type="curve" smooth="yes"/>
      <point x="384" y="115"/>
      <point x="388" y="126"/>
    </contour>
  </outline>
</glyph>
<glyph name="guilsinglleft" format="1">
  <advance width="310"/>
  <unicode hex="2039"/>
  <outline>
    <contour>
      <point x="305" y="-22" type="line"/>
      <point x="82" y="0" type="line"/>
      <point x="2" y="288" type="line"/>
      <point x="89" y="553" type="line"/>
      <point x="290" y="574" type="line"/>
      <point x="228" y="256" type="line"/>
    </contour>
  </outline>
</glyph>
<glyph name="guilsinglright" format="1">
  <advance width="310"/>
  <unicode hex="203A"/>
  <outline>
    <contour>
      <point x="308" y="315" type="line"/>
      <point x="219" y="14" type="line"/>
      <point x="5" y="-12" type="line"/>
      <point x="85" y="227" type="line"/>
      <point x="5" y="512" type="line"/>
      <point x="218" y="585" type="line"/>
    </contour>
  </outline>
</glyph>
<glyph name="fraction" format="1">
  <advance width="343"/>
  <unicode hex="2044"/>
  <unicode hex="2215"/>
  <outline>
    <contour>
      <point x="380" y="707" type="line"/>
      <point x="158" y="-13" type="line"/>
      <point x="-35" y="4" type="line"/>
      <point x="156" y="725" type="line"/>
    </contour>
  </outline>
</glyph>
<glyph name="Euro" format="1">
  <advance width="540"/>
  <unicode hex="20AC"/>
  <outline>
    <contour>
      <point x="106" y="590" type="line"/>
      <point x="134" y="690"/>
      <point x="197" y="727"/>
      <point x="332" y="727" type="curve" smooth="yes"/>
      <point x="414" y="727"/>
      <point x="472" y="714"/>
      <point x="532" y="688" type="curve"/>
      <point x="510" y="425" type="line"/>
      <point x="472" y="448"/>
      <point x="453" y="457"/>
      <point x="422" y="457" type="curve" smooth="yes"/>
      <point x="371" y="457"/>
      <point x="357" y="427"/>
      <point x="357" y="347" type="curve" smooth="yes"/>
      <point x="357" y="280"/>
      <point x="373" y="232"/>
      <point x="436" y="232" type="curve" smooth="yes"/>
      <point x="465" y="232"/>
      <point x="478" y="236"/>
      <point x="503" y="245" type="curve"/>
      <point x="526" y="22" type="line"/>
      <point x="476" y="4"/>
      <point x="421" y="-11"/>
      <point x="336" y="-11" type="curve" smooth="yes"/>
      <point x="205" y="-11"/>
      <point x="141" y="29"/>
      <point x="112" y="119" type="curve"/>
      <point x="112" y="120"/>
      <point x="19" y="127"/>
      <point x="19" y="127" type="curve"/>
      <point x="12" y="319" type="line"/>
      <point x="88" y="322" type="line"/>
      <point x="87" y="341"/>
      <point x="87" y="357"/>
      <point x="87" y="371" type="curve" smooth="yes"/>
      <point x="87" y="375"/>
      <point x="87" y="378"/>
      <point x="87" y="382" type="curve"/>
      <point x="5" y="389" type="line"/>
      <point x="19" y="592" type="line"/>
    </contour>
  </outline>
</glyph>
<glyph name="uni2117" format="1">
  <advance width="540"/>
  <unicode hex="2117"/>
  <outline>
    <contour>
      <point x="533" y="331" type="curve" smooth="yes"/>
      <point x="533" y="80"/>
      <point x="461" y="-13"/>
      <point x="239" y="-13" type="curve" smooth="yes"/>
      <point x="64" y="-13"/>
      <point x="5" y="84"/>
      <point x="5" y="341" type="curve" smooth="yes"/>
      <point x="5" y="660"/>
      <point x="65" y="727"/>
      <point x="302" y="727" type="curve" smooth="yes"/>
      <point x="456" y="727"/>
      <point x="533" y="628"/>
    </contour>
    <contour>
      <point x="456" y="329" type="curve" smooth="yes"/>
      <point x="456" y="576"/>
      <point x="415" y="645"/>
      <point x="301" y="645" type="curve" smooth="yes"/>
      <point x="105" y="645"/>
      <point x="89" y="605"/>
      <point x="89" y="340" type="curve" smooth="yes"/>
      <point x="89" y="122"/>
      <point x="110" y="68"/>
      <point x="239" y="68" type="curve" smooth="yes"/>
      <point x="423" y="68"/>
      <point x="456" y="108"/>
    </contour>
    <contour>
      <point x="421" y="411" type="curve" smooth="yes"/>
      <point x="421" y="294"/>
      <point x="390" y="247"/>
      <point x="269" y="233" type="curve"/>
      <point x="272" y="139" type="line"/>
      <point x="136" y="150" type="line"/>
      <point x="131" y="547" type="line"/>
      <point x="310" y="560" type="line" smooth="yes"/>
      <point x="386" y="566"/>
      <point x="421" y="538"/>
    </contour>
    <contour>
      <point x="298" y="409" type="curve" smooth="yes"/>
      <point x="298" y="437"/>
      <point x="288" y="441"/>
      <point x="272" y="434" type="curve"/>
      <point x="273" y="350" type="line"/>
      <point x="291" y="353"/>
      <point x="298" y="367"/>
    </contour>
  </outline>
</glyph>
<glyph name="trademark" format="1">
  <advance width="751"/>
  <unicode hex="2122"/>
  <outline>
    <contour>
      <point x="742" y="695" type="line"/>
      <point x="736" y="248" type="line"/>
      <point x="607" y="256" type="line"/>
      <point x="596" y="444" type="line"/>
      <point x="573" y="262" type="line"/>
      <point x="492" y="246" type="line"/>
      <point x="452" y="493" type="line"/>
      <point x="463" y="259" type="line"/>
      <point x="319" y="257" type="line"/>
      <point x="317" y="714" type="line"/>
      <point x="502" y="722" type="line"/>
      <point x="540" y="546" type="line"/>
      <point x="563" y="728" type="line"/>
    </contour>
    <contour>
      <point x="305" y="714" type="line"/>
      <point x="304" y="567" type="line"/>
      <point x="235" y="573" type="line"/>
      <point x="236" y="247" type="line"/>
      <point x="70" y="261" type="line"/>
      <point x="81" y="570" type="line"/>
      <point x="7" y="582" type="line"/>
      <point x="11" y="723" type="line"/>
    </contour>
  </outline>
</glyph>
<glyph name="radical" format="1">
  <advance width="481"/>
  <unicode hex="221A"/>
  <outline>
    <contour>
      <point x="479" y="688" type="line"/>
      <point x="349" y="16" type="line"/>
      <point x="142" y="-19" type="line"/>
      <point x="1" y="277" type="line"/>
      <point x="147" y="404" type="line"/>
      <point x="216" y="226" type="line"/>
      <point x="269" y="733" type="line"/>
    </contour>
  </outline>
</glyph>
<glyph name="apple" format="1">
  <advance width="540"/>
  <unicode hex="F8FF"/>
  <outline>
    <contour>
      <point x="259" y="374" type="line"/>
      <point x="16" y="382" type="line"/>
      <point x="25" y="713" type="line"/>
      <point x="251" y="727" type="line"/>
    </contour>
    <contour>
      <point x="532" y="400" type="line"/>
      <point x="287" y="360" type="line"/>
      <point x="278" y="693" type="line"/>
      <point x="526" y="724" type="line"/>
    </contour>
    <contour>
      <point x="258" y="-5" type="line"/>
      <point x="22" y="3" type="line"/>
      <point x="8" y="331" type="line"/>
      <point x="240" y="347" type="line"/>
    </contour>
    <contour>
      <point x="524" y="335" type="line"/>
      <point x="520" y="0" type="line"/>
      <point x="272" y="23" type="line"/>
      <point x="272" y="338" type="line"/>
    </contour>
  </outline>
</glyph>
<glyph name="f_f" format="1">
  <advance width="659"/>
  <unicode hex="FB00"/>
  <outline>
    <contour>
      <point x="666" y="698" type="curve"/>
      <point x="659" y="474" type="line"/>
      <point x="628" y="489"/>
      <point x="609" y="494"/>
      <point x="583" y="494" type="curve" smooth="yes"/>
      <point x="554" y="494"/>
      <point x="542" y="475"/>
      <point x="544" y="429" type="curve" smooth="yes"/>
      <point x="546" y="374" type="line"/>
      <point x="645" y="371" type="line"/>
      <point x="647" y="150" type="line"/>
      <point x="551" y="161" type="line"/>
      <point x="554" y="-4" type="line"/>
      <point x="329" y="-22" type="line"/>
      <point x="325" y="181" type="line"/>
      <point x="286" y="186" type="line"/>
      <point x="289" y="14" type="line"/>
      <point x="64" y="-4" type="line"/>
      <point x="59" y="207" type="line"/>
      <point x="4" y="213" type="line"/>
      <point x="7" y="389" type="line"/>
      <point x="55" y="387" type="line"/>
      <point x="52" y="468" type="line" smooth="yes"/>
      <point x="45" y="662"/>
      <point x="92" y="729"/>
      <point x="244" y="729" type="curve" smooth="yes"/>
      <point x="307" y="729"/>
      <point x="347" y="722"/>
      <point x="389" y="704" type="curve"/>
      <point x="418" y="722"/>
      <point x="457" y="729"/>
      <point x="508" y="729" type="curve" smooth="yes"/>
      <point x="577" y="729"/>
      <point x="619" y="720"/>
    </contour>
    <contour>
      <point x="327" y="380" type="line"/>
      <point x="325" y="496" type="line" smooth="yes"/>
      <point x="325" y="500"/>
      <point x="325" y="505"/>
      <point x="325" y="507" type="curve"/>
      <point x="321" y="509"/>
      <point x="316" y="509"/>
      <point x="313" y="509" type="curve" smooth="yes"/>
      <point x="290" y="509"/>
      <point x="284" y="487"/>
      <point x="284" y="434" type="curve" smooth="yes"/>
      <point x="284" y="382" type="line"/>
    </contour>
  </outline>
</glyph>
<glyph name="fi" format="1">
  <advance width="532"/>
  <unicode hex="FB01"/>
  <outline>
    <contour>
      <point x="526" y="415" type="line"/>
      <point x="516" y="-6" type="line"/>
      <point x="307" y="-2" type="line"/>
      <point x="305" y="212" type="line"/>
      <point x="276" y="209" type="line"/>
      <point x="279" y="20" type="line"/>
      <point x="64" y="-13" type="line"/>
      <point x="60" y="198" type="line"/>
      <point x="4" y="196" type="line"/>
      <point x="7" y="362" type="line"/>
      <point x="55" y="366" type="line"/>
      <point x="52" y="468" type="line" smooth="yes"/>
      <point x="46" y="662"/>
      <point x="89" y="729"/>
      <point x="277" y="729" type="curve" smooth="yes"/>
      <point x="367" y="729"/>
      <point x="431" y="719"/>
      <point x="504" y="689" type="curve"/>
      <point x="497" y="480" type="line"/>
      <point x="447" y="497"/>
      <point x="401" y="509"/>
      <point x="342" y="509" type="curve" smooth="yes"/>
      <point x="285" y="509"/>
      <point x="270" y="490"/>
      <point x="270" y="444" type="curve" smooth="yes"/>
      <point x="270" y="388" type="line"/>
    </contour>
  </outline>
</glyph>
<glyph name="fl" format="1">
  <advance width="548"/>
  <unicode hex="FB02"/>
  <outline>
    <contour>
      <point x="536" y="-3" type="line"/>
      <point x="316" y="27" type="line"/>
      <point x="315" y="192" type="line"/>
      <point x="276" y="197" type="line"/>
      <point x="279" y="-4" type="line"/>
      <point x="64" y="-22" type="line"/>
      <point x="59" y="217" type="line"/>
      <point x="4" y="223" type="line"/>
      <point x="7" y="389" type="line"/>
      <point x="54" y="390" type="line"/>
      <point x="52" y="468" type="line" smooth="yes"/>
      <point x="47" y="662"/>
      <point x="92" y="729"/>
      <point x="244" y="729" type="curve" smooth="yes"/>
      <point x="286" y="729"/>
      <point x="318" y="725"/>
      <point x="347" y="718" type="curve"/>
      <point x="530" y="729" type="line"/>
    </contour>
    <contour>
      <point x="312" y="395" type="line"/>
      <point x="311" y="510" type="line"/>
      <point x="304" y="510"/>
      <point x="307" y="510"/>
      <point x="299" y="510" type="curve" smooth="yes"/>
      <point x="274" y="510"/>
      <point x="270" y="491"/>
      <point x="270" y="436" type="curve" smooth="yes"/>
      <point x="270" y="393" type="line"/>
    </contour>
  </outline>
</glyph>
<glyph name="f_f_i" format="1">
  <advance width="796"/>
  <unicode hex="FB03"/>
  <outline>
    <contour>
      <point x="791" y="401" type="line"/>
      <point x="781" y="-15" type="line"/>
      <point x="577" y="-2" type="line"/>
      <point x="575" y="192" type="line"/>
      <point x="540" y="190" type="line"/>
      <point x="544" y="23" type="line"/>
      <point x="319" y="5" type="line"/>
      <point x="315" y="181" type="line"/>
      <point x="275" y="178" type="line"/>
      <point x="279" y="-22" type="line"/>
      <point x="64" y="13" type="line"/>
      <point x="61" y="170" type="line"/>
      <point x="4" y="168" type="line"/>
      <point x="7" y="344" type="line"/>
      <point x="56" y="347" type="line"/>
      <point x="52" y="468" type="line" smooth="yes"/>
      <point x="46" y="662"/>
      <point x="92" y="729"/>
      <point x="244" y="729" type="curve" smooth="yes"/>
      <point x="309" y="729"/>
      <point x="349" y="721"/>
      <point x="394" y="702" type="curve"/>
      <point x="428" y="721"/>
      <point x="476" y="729"/>
      <point x="542" y="729" type="curve" smooth="yes"/>
      <point x="632" y="729"/>
      <point x="696" y="719"/>
      <point x="769" y="689" type="curve"/>
      <point x="762" y="465" type="line"/>
      <point x="712" y="482"/>
      <point x="660" y="494"/>
      <point x="606" y="494" type="curve" smooth="yes"/>
      <point x="542" y="494"/>
      <point x="533" y="475"/>
      <point x="534" y="429" type="curve" smooth="yes"/>
      <point x="535" y="382" type="line"/>
    </contour>
    <contour>
      <point x="309" y="366" type="line"/>
      <point x="307" y="498" type="line" smooth="yes"/>
      <point x="307" y="502"/>
      <point x="307" y="506"/>
      <point x="307" y="509" type="curve"/>
      <point x="301" y="511"/>
      <point x="297" y="511"/>
      <point x="291" y="511" type="curve" smooth="yes"/>
      <point x="275" y="511"/>
      <point x="269" y="501"/>
      <point x="270" y="454" type="curve" smooth="yes"/>
      <point x="271" y="362" type="line"/>
    </contour>
  </outline>
</glyph>
<glyph name="f_f_l" format="1">
  <advance width="812"/>
  <unicode hex="FB04"/>
  <outline>
    <contour>
      <point x="801" y="-12" type="line"/>
      <point x="580" y="-22" type="line"/>
      <point x="579" y="180" type="line"/>
      <point x="541" y="184" type="line"/>
      <point x="544" y="23" type="line"/>
      <point x="319" y="-4" type="line"/>
      <point x="315" y="195" type="line"/>
      <point x="275" y="198" type="line"/>
      <point x="279" y="-30" type="line"/>
      <point x="64" y="-13" type="line"/>
      <point x="59" y="210" type="line"/>
      <point x="4" y="213" type="line"/>
      <point x="7" y="389" type="line"/>
      <point x="55" y="390" type="line"/>
      <point x="52" y="468" type="line" smooth="yes"/>
      <point x="45" y="662"/>
      <point x="92" y="729"/>
      <point x="244" y="729" type="curve" smooth="yes"/>
      <point x="307" y="729"/>
      <point x="347" y="722"/>
      <point x="389" y="704" type="curve"/>
      <point x="418" y="722"/>
      <point x="457" y="729"/>
      <point x="508" y="729" type="curve" smooth="yes"/>
      <point x="550" y="729"/>
      <point x="583" y="725"/>
      <point x="612" y="718" type="curve"/>
      <point x="794" y="729" type="line"/>
    </contour>
    <contour>
      <point x="576" y="397" type="line"/>
      <point x="576" y="510" type="line"/>
      <point x="573" y="510"/>
      <point x="571" y="510"/>
      <point x="568" y="510" type="curve" smooth="yes"/>
      <point x="546" y="510"/>
      <point x="538" y="497"/>
      <point x="539" y="437" type="curve" smooth="yes"/>
      <point x="540" y="396" type="line"/>
    </contour>
    <contour>
      <point x="309" y="392" type="line"/>
      <point x="307" y="499" type="line" smooth="yes"/>
      <point x="307" y="502"/>
      <point x="307" y="507"/>
      <point x="307" y="510" type="curve"/>
      <point x="304" y="510"/>
      <point x="300" y="510"/>
      <point x="296" y="510" type="curve" smooth="yes"/>
      <point x="275" y="510"/>
      <point x="270" y="496"/>
      <point x="270" y="437" type="curve" smooth="yes"/>
      <point x="270" y="391" type="line"/>
    </contour>
  </outline>
</glyph>
<glyph name="registered" format="1">
  <advance width="540"/>
  <outline>
    <contour>
      <point x="533" y="331" type="curve" smooth="yes"/>
      <point x="533" y="80"/>
      <point x="461" y="-13"/>
      <point x="239" y="-13" type="curve" smooth="yes"/>
      <point x="64" y="-13"/>
      <point x="5" y="84"/>
      <point x="5" y="341" type="curve" smooth="yes"/>
      <point x="5" y="660"/>
      <point x="65" y="727"/>
      <point x="302" y="727" type="curve" smooth="yes"/>
      <point x="456" y="727"/>
      <point x="533" y="628"/>
    </contour>
    <contour>
      <point x="456" y="329" type="curve" smooth="yes"/>
      <point x="456" y="576"/>
      <point x="415" y="645"/>
      <point x="301" y="645" type="curve" smooth="yes"/>
      <point x="105" y="645"/>
      <point x="89" y="605"/>
      <point x="89" y="340" type="curve" smooth="yes"/>
      <point x="89" y="122"/>
      <point x="110" y="68"/>
      <point x="239" y="68" type="curve" smooth="yes"/>
      <point x="423" y="68"/>
      <point x="456" y="108"/>
    </contour>
    <contour>
      <point x="427" y="184" type="line"/>
      <point x="287" y="159" type="line"/>
      <point x="265" y="273" type="line"/>
      <point x="262" y="150" type="line"/>
      <point x="131" y="161" type="line"/>
      <point x="131" y="551" type="line"/>
      <point x="317" y="561" type="line" smooth="yes"/>
      <point x="394" y="565"/>
      <point x="414" y="523"/>
      <point x="414" y="437" type="curve" smooth="yes"/>
      <point x="414" y="394"/>
      <point x="405" y="364"/>
      <point x="383" y="329" type="curve"/>
    </contour>
    <contour>
      <point x="284" y="422" type="curve" smooth="yes"/>
      <point x="284" y="445"/>
      <point x="276" y="452"/>
      <point x="265" y="454" type="curve"/>
      <point x="265" y="377" type="line"/>
      <point x="276" y="382"/>
      <point x="284" y="389"/>
    </contour>
  </outline>
</glyph>
